<?xml version="1.0"?>
<svg xmlns="http://www.w3.org/2000/svg" id="icon" viewBox="0 0 128 128" width="512" height="512"><path d="M109.114,34.322A11.09,11.09,0,0,0,92.7,25.511a9.908,9.908,0,0,0-14.381-4.523,11.877,11.877,0,0,0-19.77-.3,10.241,10.241,0,0,0-18.408,1.33A11.879,11.879,0,0,0,24.752,37.888a11.1,11.1,0,1,0,3.687,20.034C34.462,65.184,47.978,70.247,63.7,70.247c17.819,0,32.809-6.5,37.259-15.346a11.1,11.1,0,1,0,8.159-20.58Z" fill="#f0f5f9"/><path d="M63.7,71.248c-15.047,0-28.818-4.7-35.456-12.028a12.1,12.1,0,1,1-5.02-22.581A12.721,12.721,0,0,1,22.693,33a12.892,12.892,0,0,1,16.92-12.245,11.238,11.238,0,0,1,19-1.775,12.873,12.873,0,0,1,20.006.687,10.905,10.905,0,0,1,14.543,4.5,12.09,12.09,0,0,1,16.878,9.418,12.1,12.1,0,0,1-4.306,23.407,11.933,11.933,0,0,1-4.337-.811C96.2,65.1,80.92,71.248,63.7,71.248ZM28.632,56.588l.576.695C35.236,64.551,48.774,69.248,63.7,69.248c17.027,0,31.981-6.084,36.365-14.8l.441-.876.884.424a9.988,9.988,0,0,0,4.348.993,10.1,10.1,0,0,0,3.075-19.718l-.638-.2-.055-.667a10.089,10.089,0,0,0-14.931-8.016l-.969.535L91.783,25.9a8.907,8.907,0,0,0-12.932-4.068l-.835.521-.535-.826a10.876,10.876,0,0,0-18.106-.271l-.9,1.3-.79-1.372a9.241,9.241,0,0,0-16.612,1.2l-.375.944-.938-.39a10.879,10.879,0,0,0-14.1,14.531l.83,1.837-1.965-.451a10.1,10.1,0,1,0,3.354,18.229Z" fill="#2f3a5a"/><path d="M8.678,51.877,19.637,105.21a8.919,8.919,0,0,0,8.76,7.244H99.6a8.919,8.919,0,0,0,8.76-7.244l10.959-53.334Z" fill="#81dafc"/><path d="M119.32,51.876l-10.96,53.33a8.915,8.915,0,0,1-8.76,7.25H88.63a8.915,8.915,0,0,0,8.76-7.25l10.96-53.33Z" fill="#97f5ff"/><path d="M8.678,51.877,19.637,105.21a8.919,8.919,0,0,0,8.76,7.244H99.6a8.919,8.919,0,0,0,8.76-7.244l10.959-53.334Z" fill="none"/><path d="M99.6,113.455H28.4a9.928,9.928,0,0,1-9.742-8.057L7.7,52.078a1,1,0,0,1,.979-1.2H119.322a1,1,0,0,1,.979,1.2l-10.96,53.333A9.924,9.924,0,0,1,99.6,113.455ZM9.9,52.877l10.713,52.132a7.931,7.931,0,0,0,7.78,6.445H99.6a7.927,7.927,0,0,0,7.777-6.432L118.1,52.877Z" fill="#2f3a5a"/><path d="M122.947,49.46H5.053a4.053,4.053,0,1,0,0,8.106H122.947a4.053,4.053,0,1,0,0-8.106Z" fill="#81dafc"/><path d="M127,53.516a4.046,4.046,0,0,1-4.05,4.05H106.47a4.055,4.055,0,0,0,0-8.11h16.48A4.054,4.054,0,0,1,127,53.516Z" fill="#97f5ff"/><path d="M122.947,58.565H5.053a5.053,5.053,0,0,1,0-10.106H122.947a5.053,5.053,0,0,1,0,10.106ZM5.053,50.459a3.053,3.053,0,0,0,0,6.106H122.947a3.053,3.053,0,0,0,0-6.106Z" fill="#2f3a5a"/><path d="M33.26,39.429a8.156,8.156,0,1,0,6.826,12.612,8.152,8.152,0,1,0,4.8-14.741" fill="#f0f5f9"/><path d="M33.26,56.741a9.156,9.156,0,1,1,0-18.312v2a7.156,7.156,0,1,0,5.989,11.064l.576-.881.851.621A7.152,7.152,0,1,0,44.885,38.3v-2a9.156,9.156,0,0,1,0,18.312,9.055,9.055,0,0,1-4.552-1.219A9.124,9.124,0,0,1,33.26,56.741Z" fill="#2f3a5a"/><path d="M85.761,40.535a8.153,8.153,0,0,0-12.053-9.952,8.152,8.152,0,1,0-10.173,11.7" fill="#f0f5f9"/><path d="M63.145,43.2a9.156,9.156,0,0,1,7.15-16.858,9.053,9.053,0,0,1,3.715,2.9A9.153,9.153,0,0,1,86.683,40.926l-1.842-.781a7.153,7.153,0,0,0-10.576-8.731L73.39,32l-.54-.9a7.149,7.149,0,0,0-12.717.881,7.165,7.165,0,0,0,3.793,9.382Z" fill="#2f3a5a"/></svg>
