<svg id="icon" height="512" viewBox="0 0 128 128" width="512" xmlns="http://www.w3.org/2000/svg"><path d="m80.871 33.839h-74.871a2.167 2.167 0 0 0 -2.167 2.167v55.864h79.205v-55.864a2.167 2.167 0 0 0 -2.167-2.167z" fill="#e1e6e9"/><path d="m125.8 72.065-18.513-24.123a2.528 2.528 0 0 0 -2.006-.989h-22.239v44.91h40.776a2.509 2.509 0 0 0 2.509-2.509v-15.754a2.529 2.529 0 0 0 -.527-1.535z" fill="#fe7058"/><path d="m119.326 70.785-14.914-19.256a1.428 1.428 0 0 0 -1.129-.554h-12.016a1.428 1.428 0 0 0 -1.428 1.425v19.26a1.428 1.428 0 0 0 1.428 1.428h26.933a1.428 1.428 0 0 0 1.126-2.303z" fill="#3a556a"/><path d="m3.829 83.557h79.209v8.312h-79.209z" fill="#9297ab"/><path d="m83.04 83.56v8.31h-79.21v-4.16h74.72v-4.15z" fill="#707583"/><path d="m117.212 91.863h-26.86a13.5 13.5 0 0 1 26.86 0z" fill="#2f4859"/><circle cx="103.778" cy="93.028" fill="#3a556a" r="8.863"/><circle cx="103.778" cy="93.028" fill="#e1e6e9" r="4.642"/><path d="m50.009 91.863h-26.86a13.5 13.5 0 0 1 26.86 0z" fill="#2f4859"/><circle cx="36.575" cy="93.028" fill="#3a556a" r="8.863"/><circle cx="36.575" cy="93.028" fill="#e1e6e9" r="4.642"/><path d="m84.038 92.87h-81.209v-56.864a3.171 3.171 0 0 1 3.171-3.167h74.871a3.171 3.171 0 0 1 3.167 3.167zm-79.208-2h77.208v-54.864a1.168 1.168 0 0 0 -1.167-1.167h-74.871a1.168 1.168 0 0 0 -1.167 1.167z" fill="#2f3a5a"/><path d="m125.8 72.065-18.513-24.123a2.528 2.528 0 0 0 -2.006-.989h-22.239v44.91h40.776a2.509 2.509 0 0 0 2.509-2.509v-15.754a2.529 2.529 0 0 0 -.527-1.535z" fill="#ef5361"/><g opacity=".5"><path d="m126.33 73.6v15.75a2.512 2.512 0 0 1 -2.51 2.51h-40.78v-7.37h36.72a2.518 2.518 0 0 0 2.51-2.51v-14.52l3.53 4.6a2.563 2.563 0 0 1 .53 1.54z" fill="#da2a47"/></g><path d="m123.818 92.862h-41.776v-46.908h23.239a3.551 3.551 0 0 1 2.8 1.38l18.519 24.122a3.551 3.551 0 0 1 .729 2.148v15.749a3.513 3.513 0 0 1 -3.511 3.509zm-39.776-2h39.776a1.511 1.511 0 0 0 1.509-1.509v-15.753a1.538 1.538 0 0 0 -.316-.931l-18.517-24.118a1.538 1.538 0 0 0 -1.212-.6h-21.24z" fill="#2f3a5a"/><path d="m118.2 73.09h-26.93a1.432 1.432 0 0 1 -1.22-.68 1.456 1.456 0 0 1 -.21-.75v-19.26a1.428 1.428 0 0 1 1.43-1.42h12.01a1.4 1.4 0 0 1 .58.12 1.355 1.355 0 0 1 .55.43l1.87 2.41 1.34 1.73 1.13 1.46 10.58 13.66a1.431 1.431 0 0 1 -1.13 2.3z" fill="#b9ddfc"/><path d="m84.038 92.87h-81.209v-10.312h81.209zm-79.208-2h77.208v-6.312h-77.209z" fill="#2f3a5a"/><path d="m117.212 91.863h-26.86a13.5 13.5 0 0 1 26.86 0z" fill="#9297ab"/><path d="m118.32 92.862h-29.077l.114-1.1a14.5 14.5 0 0 1 28.85 0zm-26.812-2h24.546a12.51 12.51 0 0 0 -24.546 0z" fill="#2f3a5a"/><circle cx="103.778" cy="93.028" fill="#9297ab" r="8.863"/><path d="m103.778 102.891a9.863 9.863 0 1 1 9.863-9.863 9.874 9.874 0 0 1 -9.863 9.863zm0-17.726a7.863 7.863 0 1 0 7.863 7.863 7.872 7.872 0 0 0 -7.863-7.862z" fill="#2f3a5a"/><circle cx="103.778" cy="93.028" fill="#f0f5f9" r="4.642"/><path d="m103.778 98.67a5.642 5.642 0 1 1 5.642-5.642 5.648 5.648 0 0 1 -5.642 5.642zm0-9.283a3.642 3.642 0 1 0 3.642 3.642 3.646 3.646 0 0 0 -3.642-3.642z" fill="#2f3a5a"/><path d="m50.009 91.863h-26.86a13.5 13.5 0 0 1 26.86 0z" fill="#84879c"/><path d="m51.118 92.862h-29.077l.114-1.1a14.5 14.5 0 0 1 28.85 0zm-26.812-2h24.546a12.51 12.51 0 0 0 -24.546 0z" fill="#2f3a5a"/><circle cx="36.575" cy="93.028" fill="#84879c" r="8.863"/><path d="m36.575 102.891a9.863 9.863 0 1 1 9.863-9.863 9.874 9.874 0 0 1 -9.863 9.863zm0-17.726a7.863 7.863 0 1 0 7.863 7.863 7.872 7.872 0 0 0 -7.863-7.862z" fill="#2f3a5a"/><circle cx="36.575" cy="93.028" fill="#f0f5f9" r="4.642"/><path d="m36.575 98.67a5.642 5.642 0 1 1 5.642-5.642 5.648 5.648 0 0 1 -5.642 5.642zm0-9.283a3.642 3.642 0 1 0 3.642 3.642 3.646 3.646 0 0 0 -3.642-3.642z" fill="#2f3a5a"/><path d="m106.28 53.94-12.41 19.15h-2.6a1.432 1.432 0 0 1 -1.22-.68l13.81-21.31a1.355 1.355 0 0 1 .55.43z" fill="#f0f5f9"/><path d="m108.75 57.13-10.35 15.96h-2.08l11.3-17.42z" fill="#f0f5f9"/><path d="m118.2 74.087h-26.933a2.43 2.43 0 0 1 -2.428-2.428v-19.259a2.431 2.431 0 0 1 2.428-2.428h12.017a2.445 2.445 0 0 1 1.919.941l14.913 19.256a2.428 2.428 0 0 1 -1.919 3.915zm-26.933-22.111a.428.428 0 0 0 -.428.428v19.256a.428.428 0 0 0 .428.428h26.933a.428.428 0 0 0 .338-.69l-14.916-19.256a.431.431 0 0 0 -.338-.166z" fill="#2f3a5a"/><path d="m35.013 39.576 1.893-.857a11.618 11.618 0 0 0 12.47 0l1.93.533-2.283 6.06-8.71.977z" fill="#d5d6db"/><path d="m40.313 47.288a1 1 0 0 1 -.785-.38l-5.3-6.712a1 1 0 0 1 .372-1.531l1.893-.857a1 1 0 0 1 .93.056 10.6 10.6 0 0 0 11.434 0 1 1 0 0 1 .785-.109l1.931.533a1 1 0 0 1 .669 1.316l-2.283 6.06a1 1 0 0 1 -.824.641l-8.71.977a.946.946 0 0 1 -.112.006zm-3.723-7.329 4.164 5.273 7.55-.847 1.681-4.462-.467-.129a12.618 12.618 0 0 1 -12.667.047z" fill="#2f3a5a"/><path d="m67.3 50-6.309 6.931-4.017-3.2v20.823h-27.2v-20.823l-4.017 3.2-6.091-7.19 10.973-10.758a.686.686 0 0 1 .529-.264h5.738a2.565 2.565 0 0 0 .047.264c.99 3.364 3.478 6.137 7.257 5.593a6.24 6.24 0 0 0 5.282-5.858h6.07a.709.709 0 0 1 .544.264z" fill="#ffc943"/><path d="m56.974 71.519v3.033h-27.204v-20.823l-4.018 3.203-6.09-7.189 2.659-2.608 5.728 6.765 2.905-3.509.294 21.128z" fill="#f7b521"/><path d="m56.972 75.554h-27.2a1 1 0 0 1 -1-1v-18.747l-2.394 1.909a1 1 0 0 1 -1.387-.135l-6.091-7.19a1 1 0 0 1 .063-1.361l10.943-10.73a1.674 1.674 0 0 1 1.262-.583h5.738a1 1 0 0 1 .984.825c0 .012.018.111.02.124.385 1.333 1.955 5.528 6.157 4.919a5.251 5.251 0 0 0 4.425-4.851 1 1 0 0 1 1-1.017h6.07a1.711 1.711 0 0 1 1.31.622l11.128 10.952a1 1 0 0 1 .038 1.386l-6.309 6.931a1 1 0 0 1 -1.363.108l-2.394-1.909v18.747a1 1 0 0 1 -1 1zm-26.2-2h25.2v-19.824a1 1 0 0 1 1.624-.782l3.285 2.62 5.031-5.527-10.484-10.322h-5.012a7.4 7.4 0 0 1 -6.063 5.847c-3.715.539-6.83-1.7-8.217-5.847h-4.82l-10.292 10.089 4.862 5.739 3.258-2.6a1 1 0 0 1 1.624.782z" fill="#2f3a5a"/><path d="m30.06 52.712c.069-.188.13-.378.189-.567l-2.2 1.754-5.728-6.765-2.659 2.607 6.091 7.19 3.764-3c.17-.404.383-.796.543-1.219z" fill="#da2a47"/><path d="m65.82 48.536-6.427 7.122 1.599 1.274 6.334-6.958z" fill="#3a556a"/><path d="m60.991 57.932a1 1 0 0 1 -.623-.218l-1.6-1.274a1 1 0 0 1 -.119-1.452l6.427-7.122a1 1 0 0 1 .705-.33.983.983 0 0 1 .728.276l1.505 1.438a1 1 0 0 1 .048 1.4l-6.331 6.95a1 1 0 0 1 -.74.332zm-.143-2.393.035.027 5.046-5.543-.056-.053z" fill="#2f3a5a"/><path d="m56.1 38.984s-2.854 6.282.87 14.746l4.018 3.2 6.334-6.958z" fill="#81dafc"/><path d="m60.991 57.932a1 1 0 0 1 -.623-.218l-4.018-3.2a1 1 0 0 1 -.292-.379c-3.858-8.775-.988-15.292-.864-15.565a1 1 0 0 1 1.61-.3l11.221 10.99a1 1 0 0 1 .04 1.388l-6.334 6.952a1 1 0 0 1 -.74.332zm-3.2-4.829 3.091 2.463 5.054-5.552-9.376-9.183a19.35 19.35 0 0 0 1.232 12.269z" fill="#2f3a5a"/><path d="m30.763 38.863s2.727 6.4-1 14.867l-4.018 3.2-6.208-7.079z" fill="#81dafc"/><path d="m21.656 49.552 5.644 6.148-1.549 1.235-6.2-7.081 11.214-10.992s.159.037.439 1.644z" fill="#3dbce9"/><path d="m25.75 57.932a1 1 0 0 1 -.75-.341l-6.21-7.079a1 1 0 0 1 .052-1.374l11.221-10.99a1 1 0 0 1 1.62.322c.118.278 2.853 6.9-1 15.661a1 1 0 0 1 -.292.379l-4.018 3.2a1 1 0 0 1 -.623.222zm-4.832-8.026 4.954 5.65 3.076-2.456a20.115 20.115 0 0 0 1.331-12.366z" fill="#2f3a5a"/></svg>