<svg id="icon" height="512" viewBox="0 0 128 128" width="512" xmlns="http://www.w3.org/2000/svg"><path d="m48.887 15.17h30.223l4.58 12.053-15.767 23.289-23.433-8.39-5.207-10.848z" fill="#c1cdd3"/><path d="m67.924 51.512a1 1 0 0 1 -.337-.059l-23.434-8.39a1 1 0 0 1 -.564-.509l-5.207-10.848a1 1 0 0 1 .043-.945l9.6-16.1a1 1 0 0 1 .858-.488h30.227a1 1 0 0 1 .935.645l4.58 12.053a1 1 0 0 1 -.106.916l-15.767 23.285a1 1 0 0 1 -.828.44zm-22.71-10.193 22.316 7.99 15.041-22.216-4.15-10.923h-28.966l-9.038 15.155z" fill="#2f3a5a"/><path d="m102.785 21.173a6.643 6.643 0 0 0 -3.928-2.329l-11.336-2.114-8.407-1.558c3.674 18.387-13.455 19.589-15.114 19.66-1.673-.072-18.788-1.273-15.113-19.66l-9.608 1.787-10.134 1.886a6.643 6.643 0 0 0 -3.931 2.33l-24.214 29.657 14.87 19.789 12.64-12.2v54.409h70.978v-54.406l12.64 12.2 14.872-19.792z" fill="#d9e2e9"/><path d="m99.488 113.83h-70.976a1 1 0 0 1 -1-1v-52.051l-10.946 10.561a.991.991 0 0 1 -.773.277 1 1 0 0 1 -.721-.4l-14.872-19.784a1 1 0 0 1 .028-1.233l24.211-29.658a7.655 7.655 0 0 1 4.521-2.68l19.74-3.673a1 1 0 0 1 1.163 1.179c-1.086 5.435-.384 9.786 2.088 12.935 3.959 5.043 11.268 5.5 12.088 5.531.734-.035 8.044-.49 12-5.536 2.47-3.148 3.172-7.5 2.087-12.929a1 1 0 0 1 1.174-1.181l19.74 3.673a7.646 7.646 0 0 1 4.52 2.68l24.212 29.659a1 1 0 0 1 .025 1.233l-14.87 19.789a1 1 0 0 1 -1.494.119l-10.945-10.562v52.051a1 1 0 0 1 -1 1zm-69.977-2h68.977v-53.406a1 1 0 0 1 1.694-.72l11.825 11.411 13.72-18.258-23.716-29.051a5.653 5.653 0 0 0 -3.338-1.979l-18.326-3.41c.8 5.373-.11 9.779-2.728 13.114-4.418 5.63-12.084 6.235-13.576 6.3-1.577-.063-9.243-.666-13.661-6.294-2.618-3.335-3.533-7.743-2.729-13.119l-18.326 3.41a5.658 5.658 0 0 0 -3.339 1.979l-23.716 29.05 13.72 18.258 11.825-11.415a1 1 0 0 1 1.694.72z" fill="#2f3a5a"/><path d="m84.109 87.4a4.675 4.675 0 0 1 -1.109 3.359c-1.079 1.013-2.763.969-4.227.726a3.847 3.847 0 0 1 -2.675-1.75 5.885 5.885 0 0 0 -4.568-2.487 3.878 3.878 0 0 0 -3.247 1.321 4.315 4.315 0 0 0 -.506 3.61c.286 1.222.837 2.377 1.123 3.6a8.643 8.643 0 0 1 -.958 6.241 3.5 3.5 0 0 1 -.8.991 2.956 2.956 0 0 1 -1.629.583c-2.609.176-4.843-2.146-5.57-4.667s-.352-5.206-.165-7.815a2.409 2.409 0 0 0 -.4-1.86 1.88 1.88 0 0 0 -.991-.517c-1.574-.407-2.422-.605-3.643.462a8.708 8.708 0 0 1 -3.313 2.157c-.5.11-7.485 1.42-7.727-4.689a6.085 6.085 0 0 1 1.926-4.535 9.875 9.875 0 0 1 .815-.726 8.333 8.333 0 0 1 5.107-1.508c1.739-.022 4.755-.176 6.373-1.7a1.084 1.084 0 0 0 .33-.88 6.61 6.61 0 0 0 -1.376-3.247 13 13 0 0 1 -2.631-6.56c-.022-.33-.044-.671-.044-1.013-.066-2.8.7-5.8 3.247-7.331a4.232 4.232 0 0 1 4.238-.154c2.179 1.233 2.19 3.764 2.455 5.988.22 1.893 1.024 4.073 2.873 4.5a3.319 3.319 0 0 0 2.994-1 5.944 5.944 0 0 0 1.442-2.917 8.018 8.018 0 0 1 .826-2.7.611.611 0 0 1 .077-.1 4.147 4.147 0 0 1 3.775-1.431 6.673 6.673 0 0 1 3.148 12.163c-1.684 1.145-3.852 1.5-5.162 3.181a2.7 2.7 0 0 0 -.352 3.016c.661 1.112 1.937 1.134 3.071 1.178 2.752.11 5.911 1.024 6.923 3.577a7.3 7.3 0 0 1 .35 2.934z" fill="#64798a"/><path d="m65.233 104.6c-3.059 0-5.486-2.726-6.257-5.4a19.444 19.444 0 0 1 -.289-7.047c.03-.373.061-.746.088-1.116.018-.269.061-.906-.122-1.1a.913.913 0 0 0 -.5-.237c-1.546-.4-1.937-.467-2.749.244l-.264.231a8.545 8.545 0 0 1 -3.488 2.149c-.175.038-4.215.9-6.844-1.121a5.661 5.661 0 0 1 -2.1-4.5 7.079 7.079 0 0 1 2.215-5.278 10.764 10.764 0 0 1 .9-.8 9.2 9.2 0 0 1 5.716-1.725c1.048-.013 4.24-.054 5.7-1.424a5.3 5.3 0 0 0 -1.167-2.807 13.884 13.884 0 0 1 -2.822-7.069c-.024-.367-.047-.731-.047-1.1-.09-3.77 1.235-6.686 3.731-8.188a5.23 5.23 0 0 1 5.249-.165c2.384 1.348 2.654 3.931 2.872 6.006.025.246.051.491.08.732.089.763.5 3.273 2.105 3.646a2.306 2.306 0 0 0 2.06-.731 4.954 4.954 0 0 0 1.18-2.434c.042-.187.079-.374.116-.562a6.762 6.762 0 0 1 .847-2.462 1.9 1.9 0 0 1 .137-.184 5.164 5.164 0 0 1 4.646-1.8 7.673 7.673 0 0 1 3.613 13.992 14.335 14.335 0 0 1 -2.147 1.135 7.023 7.023 0 0 0 -2.792 1.831 1.741 1.741 0 0 0 -.281 1.892c.341.575 1.046.643 2.167.686 4.051.162 6.9 1.7 7.9 4.211a8.207 8.207 0 0 1 .422 3.33 5.613 5.613 0 0 1 -1.431 4.055c-1.647 1.545-4.224 1.12-5.07.979a4.849 4.849 0 0 1 -3.34-2.177 4.861 4.861 0 0 0 -3.77-2.048 2.957 2.957 0 0 0 -2.421.927 3.454 3.454 0 0 0 -.329 2.776 16.553 16.553 0 0 0 .531 1.7 18.176 18.176 0 0 1 .592 1.9 9.642 9.642 0 0 1 -1.069 6.974 4.436 4.436 0 0 1 -1.053 1.276 3.909 3.909 0 0 1 -2.167.79q-.175.013-.348.013zm-8.639-17.19a8.287 8.287 0 0 1 2.042.355 2.793 2.793 0 0 1 1.489.824 3.307 3.307 0 0 1 .646 2.59c-.027.381-.059.76-.09 1.14a17.7 17.7 0 0 0 .218 6.331c.583 2.022 2.4 4.09 4.541 3.946a1.969 1.969 0 0 0 1.07-.365 2.622 2.622 0 0 0 .574-.729 7.613 7.613 0 0 0 .839-5.5 16.45 16.45 0 0 0 -.53-1.693 18.194 18.194 0 0 1 -.592-1.9 5.232 5.232 0 0 1 .688-4.448 4.869 4.869 0 0 1 4.076-1.711 6.9 6.9 0 0 1 5.354 2.917 2.87 2.87 0 0 0 2.012 1.333c1.649.273 2.756.12 3.383-.468a3.852 3.852 0 0 0 .8-2.664 6.473 6.473 0 0 0 -.284-2.526c-1.011-2.548-4.873-2.9-6.032-2.944-1.3-.049-2.969-.113-3.891-1.666a3.673 3.673 0 0 1 .426-4.145 8.628 8.628 0 0 1 3.531-2.419 12.648 12.648 0 0 0 1.855-.971 5.673 5.673 0 0 0 -2.676-10.34 3.164 3.164 0 0 0 -2.871 1.013.927.927 0 0 1 -.113.134 5.659 5.659 0 0 0 -.5 1.693c-.041.2-.081.409-.127.611a6.892 6.892 0 0 1 -1.706 3.4 4.281 4.281 0 0 1 -3.926 1.275c-1.977-.458-3.3-2.412-3.646-5.362-.029-.247-.057-.5-.083-.757-.2-1.868-.381-3.633-1.871-4.476a3.234 3.234 0 0 0 -3.235.143c-2.5 1.5-2.8 4.685-2.757 6.447 0 .342.021.66.042.969a11.919 11.919 0 0 0 2.439 6.037 7.463 7.463 0 0 1 1.566 3.758 2.078 2.078 0 0 1 -.637 1.684c-1.823 1.711-4.9 1.945-7.051 1.972a7.279 7.279 0 0 0 -4.5 1.292 8.554 8.554 0 0 0 -.727.648 5.062 5.062 0 0 0 -1.64 3.792 3.712 3.712 0 0 0 1.324 2.994c1.868 1.438 5.155.761 5.187.753a7.083 7.083 0 0 0 2.6-1.694l.276-.243a3.648 3.648 0 0 1 2.507-1.03z" fill="#2f3a5a"/><path d="m91.51 78.991a4.5 4.5 0 0 0 -1.732-1.9c-2.049-1.319-8.39-.351-8.7.007a8.81 8.81 0 0 1 6.339 3.522c.5.68.96 1.483 1.757 1.76a1.99 1.99 0 0 0 2.247-.883 2.742 2.742 0 0 0 .089-2.506z" fill="#64798a"/><path d="m89.7 83.468a2.609 2.609 0 0 1 -.861-.144 4.341 4.341 0 0 1 -2.019-1.814l-.213-.3a7.782 7.782 0 0 0 -5.607-3.115 1 1 0 0 1 -.676-1.657c.771-.879 7.723-1.652 10-.188a5.47 5.47 0 0 1 2.105 2.338 3.747 3.747 0 0 1 -.157 3.435 3.064 3.064 0 0 1 -2.572 1.445zm-4.361-6.032a9.684 9.684 0 0 1 2.878 2.593l.233.327c.346.488.671.95 1.046 1.08a1.012 1.012 0 0 0 1.067-.463 1.754 1.754 0 0 0 .028-1.578 3.572 3.572 0 0 0 -1.356-1.462 8.072 8.072 0 0 0 -3.893-.497z" fill="#2f3a5a"/><path d="m42.859 67.1a5.639 5.639 0 0 0 .775 3.132c1.473 2.679 9.045 5.4 9.605 5.193a11.052 11.052 0 0 1 -4.888-7.673 5.338 5.338 0 0 0 -.886-2.991 2.5 2.5 0 0 0 -3.006-.369 3.44 3.44 0 0 0 -1.6 2.708z" fill="#64798a"/><path d="m53.248 76.414c-1.981 0-9.053-3.08-10.49-5.7a6.629 6.629 0 0 1 -.9-3.695 4.446 4.446 0 0 1 2.1-3.495 3.49 3.49 0 0 1 4.242.563 5.177 5.177 0 0 1 1.081 3.072l.058.457a10.019 10.019 0 0 0 4.438 6.969 1 1 0 0 1 -.194 1.778 1.019 1.019 0 0 1 -.335.051zm-9.392-9.228a4.743 4.743 0 0 0 .653 2.569c.627 1.14 2.859 2.421 4.92 3.356a11.948 11.948 0 0 1 -2.068-5.219l-.061-.492a3.635 3.635 0 0 0 -.572-1.96 1.5 1.5 0 0 0 -1.771-.175 2.459 2.459 0 0 0 -1.1 1.922z" fill="#2f3a5a"/><g opacity=".25"><path d="m83.757 84.474c-1.013-2.554-4.172-3.467-6.923-3.577-1.134-.044-2.41-.066-3.071-1.178a2.7 2.7 0 0 1 .352-3.016c1.31-1.684 3.478-2.036 5.162-3.181a6.673 6.673 0 0 0 -3.148-12.163 4.147 4.147 0 0 0 -3.775 1.431c.2-.033.407-.077.594-.121.44-.11.881-.231 1.332-.341h-.253a3.727 3.727 0 0 1 1.244-.2 4.208 4.208 0 0 1 1.992.121l-.914.022a5.589 5.589 0 0 1 3.93 4.829c.187 3.038-1.926 5.834-4.546 7.364-1.772 1.035-4.084 2.025-4.238 4.073-.121 1.607 1.321 2.961 2.851 3.489a38.255 38.255 0 0 0 4.777.793 5.625 5.625 0 0 1 3.841 2.344 2.969 2.969 0 0 1 -.848 4.051c-1.761.925-3.731-.627-5.35-1.783a9.223 9.223 0 0 0 -6.043-1.959 5.26 5.26 0 0 0 -4.733 3.786c-.4 1.816.429 3.643.693 5.482s-.506 4.194-2.345 4.4c-1.948.22-3.192-2.135-3.192-4.095s.605-4.006-.132-5.823a5.181 5.181 0 0 0 -4.128-2.939 9.343 9.343 0 0 0 -5.151.991 18.765 18.765 0 0 1 -3.39 1.464 3.546 3.546 0 0 1 -3.434-.815c-1.4-1.574-.3-4.04.969-5.724a2.217 2.217 0 0 0 -.253-.077 6.085 6.085 0 0 0 -1.927 4.542c.242 6.109 7.232 4.8 7.727 4.689a8.708 8.708 0 0 0 3.315-2.153c1.222-1.068 2.069-.869 3.643-.462a1.88 1.88 0 0 1 .991.517 2.409 2.409 0 0 1 .4 1.86c-.187 2.609-.561 5.294.165 7.815s2.961 4.843 5.57 4.667a2.956 2.956 0 0 0 1.629-.583 3.5 3.5 0 0 0 .8-.991 8.643 8.643 0 0 0 .958-6.241c-.286-1.222-.837-2.378-1.123-3.6a4.315 4.315 0 0 1 .506-3.61 3.878 3.878 0 0 1 3.247-1.321 5.885 5.885 0 0 1 4.572 2.484 3.847 3.847 0 0 0 2.675 1.75c1.464.242 3.148.286 4.227-.726a4.675 4.675 0 0 0 1.107-3.359 7.3 7.3 0 0 0 -.352-2.926z" fill="#3a556a"/><path d="m65.233 104.6c-3.059 0-5.486-2.726-6.257-5.4a19.444 19.444 0 0 1 -.289-7.047c.03-.373.061-.746.088-1.116.018-.269.061-.906-.122-1.1a.913.913 0 0 0 -.5-.237c-1.546-.4-1.937-.467-2.749.244l-.264.231a8.545 8.545 0 0 1 -3.488 2.149c-.175.038-4.215.9-6.844-1.121a5.661 5.661 0 0 1 -2.1-4.5 7.079 7.079 0 0 1 2.215-5.278 1 1 0 0 1 .953-.267 3.144 3.144 0 0 1 .364.112 1 1 0 0 1 .446 1.536c-.382.507-2.222 3.106-1.021 4.459a2.636 2.636 0 0 0 2.463.5 10.625 10.625 0 0 0 2.229-.926c.32-.161.642-.322.967-.472a10.237 10.237 0 0 1 5.701-1.067 6.2 6.2 0 0 1 4.917 3.551 9.164 9.164 0 0 1 .319 4.45c-.059.611-.113 1.189-.113 1.751a3.911 3.911 0 0 0 1.075 2.743 1.213 1.213 0 0 0 1.876-.172 3.892 3.892 0 0 0 .6-2.743c-.076-.529-.207-1.07-.345-1.643a9.191 9.191 0 0 1 -.337-4.188 6.265 6.265 0 0 1 5.619-4.569 10.258 10.258 0 0 1 6.719 2.143l.285.205c1.361.979 2.9 2.09 4.016 1.5a1.424 1.424 0 0 0 .67-.9 2.305 2.305 0 0 0 -.217-1.751 4.769 4.769 0 0 0 -3.178-1.877c-.583-.118-1.177-.183-1.8-.251a14.376 14.376 0 0 1 -3.1-.576c-1.818-.628-3.693-2.307-3.527-4.512.174-2.312 2.307-3.5 4.021-4.459.241-.135.48-.268.71-.4 1.98-1.157 4.23-3.537 4.053-6.439a4.584 4.584 0 0 0 -3.2-3.929 1 1 0 0 1 -.326-.158c-.11.009-.224.022-.343.04-.2.03-.4.014-.577.039a.984.984 0 0 1 -.321.142c-.247.061-.492.125-.734.188l-.592.152c-.223.052-.453.1-.673.137a1 1 0 0 1 -.98-1.564 5.139 5.139 0 0 1 4.684-1.849 7.673 7.673 0 0 1 3.613 13.989 14.335 14.335 0 0 1 -2.147 1.135 7.023 7.023 0 0 0 -2.792 1.831 1.741 1.741 0 0 0 -.281 1.892c.341.575 1.046.643 2.167.686 4.051.162 6.9 1.7 7.9 4.211a8.2 8.2 0 0 1 .421 3.327 5.616 5.616 0 0 1 -1.431 4.057c-1.647 1.545-4.224 1.12-5.07.979a4.851 4.851 0 0 1 -3.34-2.177 4.861 4.861 0 0 0 -3.77-2.048 2.977 2.977 0 0 0 -2.421.927 3.454 3.454 0 0 0 -.329 2.776 16.553 16.553 0 0 0 .531 1.7 18.176 18.176 0 0 1 .592 1.9 9.642 9.642 0 0 1 -1.069 6.974 4.436 4.436 0 0 1 -1.053 1.276 3.909 3.909 0 0 1 -2.167.79q-.174.014-.347.014zm-4.59-7.128a9.191 9.191 0 0 0 .255 1.176c.583 2.022 2.4 4.09 4.541 3.946a1.969 1.969 0 0 0 1.07-.365 2.622 2.622 0 0 0 .574-.729 7.613 7.613 0 0 0 .839-5.5c-.054-.23-.118-.459-.19-.69a5.66 5.66 0 0 1 -1.053 3.537 3.208 3.208 0 0 1 -4.789.437 5.067 5.067 0 0 1 -1.246-1.81zm15.4-9.328a6.579 6.579 0 0 1 .876 1.019 2.87 2.87 0 0 0 2.012 1.337 5.539 5.539 0 0 0 2.688-.056c-1.889.359-3.74-.978-5.149-1.991l-.282-.2zm-29.854 1.6c1.889 1.283 4.993.643 5.023.636a7.083 7.083 0 0 0 2.6-1.694l.276-.243a3.807 3.807 0 0 1 3.8-.859 4.937 4.937 0 0 0 -1.141-.3 8.317 8.317 0 0 0 -4.593.907c-.308.142-.607.293-.907.443a12.283 12.283 0 0 1 -2.672 1.086 5.53 5.53 0 0 1 -2.387.022z" fill="#2f3a5a"/></g></svg>