<svg id="Capa_1" enable-background="new 0 0 497 497" height="512" viewBox="0 0 497 497" width="512" xmlns="http://www.w3.org/2000/svg"><g><circle cx="248.5" cy="248.5" fill="#0068ae" r="248.5"/><path d="m248.5 0c-3.912 0-7.799.102-11.667.281 131.825 6.094 236.834 114.888 236.834 248.219s-105.009 242.125-236.834 248.219c3.867.179 7.755.281 11.667.281 137.243 0 248.5-111.257 248.5-248.5s-111.257-248.5-248.5-248.5z" fill="#004a84"/><circle cx="248.5" cy="248.5" fill="#f3edea" r="198.8"/><path d="m248.5 49.7c-3.861 0-7.693.122-11.5.339 104.441 5.959 187.3 92.528 187.3 198.461s-82.859 192.502-187.3 198.461c3.807.217 7.639.339 11.5.339 109.794 0 198.8-89.006 198.8-198.8s-89.006-198.8-198.8-198.8z" fill="#e3dcda"/><g><g><g><path d="m248.5 98.616c-4.142 0-7.5-3.357-7.5-7.5v-16.566c0-4.143 3.358-7.5 7.5-7.5 4.143 0 7.5 3.357 7.5 7.5v16.566c0 4.143-3.357 7.5-7.5 7.5z" fill="#004a84"/></g><g><path d="m248.5 429.95c-4.142 0-7.5-3.357-7.5-7.5v-16.566c0-4.143 3.358-7.5 7.5-7.5 4.143 0 7.5 3.357 7.5 7.5v16.566c0 4.143-3.357 7.5-7.5 7.5z" fill="#004a84"/></g></g><g><g><path d="m422.45 256h-16.566c-4.143 0-7.5-3.357-7.5-7.5s3.357-7.5 7.5-7.5h16.566c4.143 0 7.5 3.357 7.5 7.5s-3.357 7.5-7.5 7.5z" fill="#004a84"/></g><g><path d="m91.117 256h-16.567c-4.142 0-7.5-3.357-7.5-7.5s3.358-7.5 7.5-7.5h16.567c4.142 0 7.5 3.357 7.5 7.5s-3.358 7.5-7.5 7.5z" fill="#004a84"/></g></g></g><path d="m248.5 138.7v21.173c0 3.146 2.431 5.769 5.57 5.977 43.81 2.909 78.304 39.878 77.239 84.666-1.049 44.148-37.206 80.049-81.36 80.804-23.131.396-44.137-8.696-59.394-23.637-2.374-2.325-2.362-6.156-.013-8.505l5.541-5.541c3.332-3.332 1.698-9.029-2.894-10.089l-56.241-12.979c-4.32-.997-8.193 2.875-7.196 7.195l12.979 56.241c1.06 4.592 6.757 6.226 10.089 2.893l5.812-5.812c2.322-2.322 6.09-2.356 8.428-.049 20.622 20.351 48.825 33.038 79.996 33.418 63.657.777 116.517-50.659 117.399-114.314.868-62.658-47.966-114.107-109.593-117.439-3.45-.184-6.362 2.543-6.362 5.998z" fill="#7fe881"/><g><g><path d="m157.383 222.866h-33.133c-4.142 0-7.5-3.357-7.5-7.5v-16.566c0-13.271 10.796-24.066 24.067-24.066 4.999 0 9.066-4.067 9.066-9.066 0-5-4.067-9.067-9.066-9.067s-9.067 4.067-9.067 9.067c0 4.143-3.358 7.5-7.5 7.5s-7.5-3.357-7.5-7.5c0-13.271 10.796-24.067 24.067-24.067 13.27 0 24.066 10.797 24.066 24.067s-10.796 24.066-24.066 24.066c-4.999 0-9.067 4.067-9.067 9.066v9.066h25.633c4.142 0 7.5 3.357 7.5 7.5s-3.358 7.5-7.5 7.5z" fill="#004a84"/></g><g><path d="m215.367 189.733h-33.133c-4.142 0-7.5-3.357-7.5-7.5v-33.133c0-4.143 3.358-7.5 7.5-7.5s7.5 3.357 7.5 7.5v25.634h25.633c4.142 0 7.5 3.357 7.5 7.5 0 4.142-3.358 7.499-7.5 7.499z" fill="#004a84"/></g><g><path d="m215.367 222.866c-4.142 0-7.5-3.357-7.5-7.5v-66.266c0-4.143 3.358-7.5 7.5-7.5s7.5 3.357 7.5 7.5v66.267c0 4.142-3.358 7.499-7.5 7.499z" fill="#004a84"/></g></g><circle cx="248.5" cy="248.5" fill="#ffc200" r="16.567"/></g></svg>