<?xml version="1.0"?>
<svg xmlns="http://www.w3.org/2000/svg" id="Icons" viewBox="0 0 74 74" width="512" height="512"><path d="M37,72A35,35,0,1,1,72,37,35.04,35.04,0,0,1,37,72ZM37,4A33,33,0,1,0,70,37,33.037,33.037,0,0,0,37,4Z"/><path d="M37,64.667A27.667,27.667,0,1,1,64.667,37,27.7,27.7,0,0,1,37,64.667Zm0-53.333A25.667,25.667,0,1,0,62.667,37,25.7,25.7,0,0,0,37,11.333Z"/><path d="M37,47.34a1,1,0,0,1-1-1,10.707,10.707,0,0,1,5.156-8.989,7.723,7.723,0,0,0,3.617-6.8A7.868,7.868,0,0,0,37.222,23a7.776,7.776,0,0,0-8,7.773,1,1,0,0,1-2,0A9.776,9.776,0,0,1,37.276,21a9.894,9.894,0,0,1,9.5,9.5,9.709,9.709,0,0,1-4.547,8.541A8.718,8.718,0,0,0,38,46.34,1,1,0,0,1,37,47.34Z"/><path d="M37,53a1,1,0,0,1-1-1V50.853a1,1,0,0,1,2,0V52A1,1,0,0,1,37,53Z"/></svg>
