<svg height="512" viewBox="0 0 64 64" width="512" xmlns="http://www.w3.org/2000/svg"><g id="flat"><path d="m56.69 23h4.31v-4h-5.427z" fill="#394d5c"/><path d="m60.911 37-3.911-17a4.107 4.107 0 0 0 -4-3s-15.771-.471-21 0c-11.135 1-15.114 9.36-17 12l-7 10h52c1.041 0 1.261-1.02.911-2zm-9.911-10h-11a3 3 0 0 1 0-6h11c1.338 0 2.78 1.68 3 3 .278 1.668-1.309 3-3 3z" fill="#5f79ba"/><path d="m52.969 45h-49.969l5-6h47v3.969a2.031 2.031 0 0 1 -2.031 2.031z" fill="#87cee9"/><path d="m55 34h2v2h-2z" fill="#f4f4e6"/><path d="m30 35h-14a1 1 0 0 1 0-2h14a1 1 0 0 1 0 2z" fill="#f4f4e6"/><path d="m24 25h4v4h-4z" fill="#f9bb4b"/></g></svg>