<svg id="icon" height="512" viewBox="0 0 128 128" width="512" xmlns="http://www.w3.org/2000/svg"><path d="m102.069 31.3h10.694a7.172 7.172 0 0 0 7.152-7.658 7.335 7.335 0 0 0 -7.405-6.676h-10.441" fill="#81dafc"/><path d="m112.764 32.3h-10.695a1 1 0 0 1 0-2h10.694a6.2 6.2 0 0 0 4.509-1.961 6.107 6.107 0 0 0 1.645-4.629 6.315 6.315 0 0 0 -6.406-5.744h-10.442a1 1 0 0 1 0-2h10.441a8.319 8.319 0 0 1 8.4 7.609 8.087 8.087 0 0 1 -2.18 6.129 8.2 8.2 0 0 1 -5.966 2.596z" fill="#2f3a5a"/><path d="m102.311 26.831h-28.2a2.2 2.2 0 0 0 -1.578.655 2.231 2.231 0 0 0 1.579 3.814h28.274a7.172 7.172 0 0 0 7.152-7.658 7.335 7.335 0 0 0 -7.405-6.676h-25.044a4.611 4.611 0 0 0 -4.718 4c-.275 3.595 1.823 5.872 4.562 5.872" fill="#81dafc"/><path d="m102.386 32.3h-28.275a3.231 3.231 0 0 1 -2.284-5.518 3.144 3.144 0 0 1 1.077-.718 6.863 6.863 0 0 1 -1.531-5.178 5.584 5.584 0 0 1 5.716-4.92h25.044a8.319 8.319 0 0 1 8.4 7.609 8.087 8.087 0 0 1 -2.18 6.129 8.2 8.2 0 0 1 -5.967 2.596zm-28.275-4.469a1.2 1.2 0 0 0 -.863.355 1.231 1.231 0 0 0 .863 2.11h28.274a6.2 6.2 0 0 0 4.509-1.961 6.107 6.107 0 0 0 1.645-4.629 6.315 6.315 0 0 0 -6.406-5.744h-25.044a3.626 3.626 0 0 0 -3.722 3.073 4.869 4.869 0 0 0 1.068 3.736 3.31 3.31 0 0 0 2.5 1.06h25.378a1 1 0 0 1 0 2z" fill="#2f3a5a"/><path d="m102.311 27.831a1 1 0 1 1 0-2 1.756 1.756 0 0 0 1.736-1.332 1.7 1.7 0 0 0 -1.661-2.071h-25.453a1 1 0 0 1 0-2h25.453a3.7 3.7 0 0 1 3.621 4.469 3.735 3.735 0 0 1 -3.696 2.934z" fill="#2f3a5a"/><path d="m102.069 45.631h10.694a7.172 7.172 0 0 0 7.152-7.658 7.335 7.335 0 0 0 -7.405-6.673h-10.441" fill="#ffc943"/><path d="m112.764 46.631h-10.695a1 1 0 0 1 0-2h10.694a6.2 6.2 0 0 0 4.509-1.961 6.106 6.106 0 0 0 1.645-4.629 6.315 6.315 0 0 0 -6.406-5.744h-10.442a1 1 0 0 1 0-2h10.441a8.319 8.319 0 0 1 8.4 7.609 8.089 8.089 0 0 1 -2.18 6.129 8.2 8.2 0 0 1 -5.966 2.596z" fill="#2f3a5a"/><path d="m102.311 41.165h-28.2a2.2 2.2 0 0 0 -1.578.655 2.231 2.231 0 0 0 1.578 3.811h28.274a7.172 7.172 0 0 0 7.152-7.658 7.335 7.335 0 0 0 -7.405-6.676h-25.043a4.611 4.611 0 0 0 -4.718 4c-.275 3.595 1.823 5.872 4.562 5.872" fill="#ffc943"/><path d="m102.386 46.631h-28.275a3.231 3.231 0 0 1 -2.284-5.518 3.145 3.145 0 0 1 1.077-.718 6.863 6.863 0 0 1 -1.531-5.178 5.584 5.584 0 0 1 5.716-4.92h25.044a8.319 8.319 0 0 1 8.4 7.609 8.089 8.089 0 0 1 -2.18 6.129 8.2 8.2 0 0 1 -5.967 2.596zm-28.275-4.466a1.2 1.2 0 0 0 -.863.355 1.232 1.232 0 0 0 .863 2.111h28.274a6.2 6.2 0 0 0 4.509-1.961 6.106 6.106 0 0 0 1.645-4.629 6.315 6.315 0 0 0 -6.406-5.744h-25.044a3.626 3.626 0 0 0 -3.722 3.073 4.869 4.869 0 0 0 1.068 3.736 3.31 3.31 0 0 0 2.5 1.06h25.378a1 1 0 0 1 0 2z" fill="#2f3a5a"/><path d="m102.311 42.165a1 1 0 1 1 0-2 1.756 1.756 0 0 0 1.736-1.332 1.7 1.7 0 0 0 -1.661-2.071h-25.453a1 1 0 0 1 0-2h25.453a3.7 3.7 0 0 1 3.621 4.469 3.735 3.735 0 0 1 -3.696 2.934z" fill="#2f3a5a"/><path d="m91.586 48.355-60.456 69.883a2.033 2.033 0 1 0 3.07 2.662l62.762-72.545z" fill="#c8cbd2"/><path d="m32.663 122.6a3.033 3.033 0 0 1 -2.289-5.018l60.755-70.227h8.021l-64.189 74.2a3.009 3.009 0 0 1 -2.074 1.041c-.075.004-.151.004-.224.004zm59.38-73.247-60.157 69.54a1.032 1.032 0 0 0 .105 1.457 1.037 1.037 0 0 0 .75.25 1.024 1.024 0 0 0 .706-.354l61.327-70.891z" fill="#2f3a5a"/><path d="m34.692 111.84-5.144 6.223a3.571 3.571 0 0 0 .477 5.028 3.571 3.571 0 0 0 5.028-.477l5.144-6.223z" fill="#9297ab"/><path d="m32.3 124.908a4.569 4.569 0 0 1 -3.52-7.481l5.145-6.223a1 1 0 0 1 1.407-.134l5.506 4.551a1 1 0 0 1 .134 1.408l-5.145 6.223a4.563 4.563 0 0 1 -3.527 1.656zm2.529-11.66-4.512 5.452a2.572 2.572 0 0 0 3.965 3.277l4.507-5.452z" fill="#2f3a5a"/><path d="m36.414 48.355h-5.376l62.762 72.545a2.033 2.033 0 1 0 3.075-2.66z" fill="#c8cbd2"/><path d="m95.337 122.6c-.074 0-.148 0-.223-.008a3.013 3.013 0 0 1 -2.075-1.041l-64.188-74.2h8.021l60.755 70.229a3.033 3.033 0 0 1 -2.289 5.018zm-62.111-73.245 61.326 70.889a1.028 1.028 0 0 0 .707.354 1.04 1.04 0 0 0 .75-.25 1.032 1.032 0 0 0 .105-1.456l-60.157-69.537z" fill="#2f3a5a"/><path d="m93.308 111.84 5.144 6.223a3.571 3.571 0 0 1 -.477 5.028 3.571 3.571 0 0 1 -5.028-.477l-5.147-6.223z" fill="#9297ab"/><path d="m95.7 124.908a4.563 4.563 0 0 1 -3.527-1.656l-5.145-6.223a1 1 0 0 1 .134-1.408l5.506-4.551a1 1 0 0 1 1.407.134l5.145 6.223a4.569 4.569 0 0 1 -3.52 7.482zm-6.493-8.382 4.507 5.452a2.572 2.572 0 0 0 3.965-3.277l-4.508-5.452z" fill="#2f3a5a"/><path d="m1.004 45.631h125.994v6.985h-125.994z" fill="#e1b378"/><path d="m127 45.631v6.982h-126v-3.069h122.192v-3.913z" fill="#bd8d5a"/><path d="m127 53.616h-126a1 1 0 0 1 -1-1v-6.985a1 1 0 0 1 1-1h126a1 1 0 0 1 1 1v6.985a1 1 0 0 1 -1 1zm-125-2h124v-4.985h-124z" fill="#2f3a5a"/><path d="m9.964 41.005h13.971v4.626h-13.971z" fill="#9297ab"/><path d="m23.936 46.631h-13.971a1 1 0 0 1 -1-1v-4.631a1 1 0 0 1 1-1h13.971a1 1 0 0 1 1 1v4.626a1 1 0 0 1 -1 1.005zm-12.971-2h11.971v-2.631h-11.971z" fill="#2f3a5a"/><path d="m25.175 41.8a31.006 31.006 0 0 0 -8.224-29.133 31.006 31.006 0 0 0 -8.226 29.133z" fill="#d9e2e9"/><path d="m25.175 42.8h-16.449a1 1 0 0 1 -.973-.77 31.86 31.86 0 0 1 8.49-30.07 1 1 0 0 1 1.414 0 31.86 31.86 0 0 1 8.49 30.07 1 1 0 0 1 -.972.77zm-15.648-2h14.847a29.859 29.859 0 0 0 -7.423-26.695 29.856 29.856 0 0 0 -7.425 26.695z" fill="#2f3a5a"/></svg>