<?xml version="1.0"?>
<svg xmlns="http://www.w3.org/2000/svg" id="icon" viewBox="0 0 128 128" width="512" height="512"><rect x="1" y="1.806" width="126" height="12.63" fill="#ef5361"/><path d="M127,15.436H1a1,1,0,0,1-1-1V1.806a1,1,0,0,1,1-1H127a1,1,0,0,1,1,1v12.63A1,1,0,0,1,127,15.436Zm-125-2H126V2.806H2Z" fill="#2f3a5a"/><path d="M9.688,14.436,21.142,120.048a6.889,6.889,0,0,0,6.849,6.146h72.018a6.889,6.889,0,0,0,6.849-6.146L118.312,14.436Zm35.3,91.8a3.536,3.536,0,0,1-7.073,0V78.76a3.536,3.536,0,1,1,7.073,0Zm0-46.605a3.536,3.536,0,0,1-7.073,0V32.154a3.536,3.536,0,1,1,7.073,0Zm22.547,46.605a3.536,3.536,0,1,1-7.072,0V78.76a3.536,3.536,0,1,1,7.072,0Zm0-46.605a3.536,3.536,0,1,1-7.072,0V32.154a3.536,3.536,0,1,1,7.072,0Zm22.547,46.605a3.536,3.536,0,0,1-7.073,0V78.76a3.536,3.536,0,1,1,7.073,0Zm0-46.605a3.536,3.536,0,0,1-7.073,0V32.154a3.536,3.536,0,1,1,7.073,0Z" fill="#ef5361"/><path d="M118.312,14.436H9.688l11.45,105.612a6.891,6.891,0,0,0,6.28,6.121c-.024-.134-.049-.28-.061-.427L15.907,20.131H117.69Z" fill="#da2a47"/><path d="M100.009,127.194H27.991a7.878,7.878,0,0,1-7.844-7.038L8.693,14.544a1,1,0,0,1,.994-1.108H118.313a1,1,0,0,1,.994,1.108L107.853,120.156A7.878,7.878,0,0,1,100.009,127.194ZM10.8,15.436l11.334,104.5a5.881,5.881,0,0,0,5.855,5.254h72.018a5.881,5.881,0,0,0,5.855-5.254L117.2,15.436Zm75.745,95.333a4.542,4.542,0,0,1-4.536-4.537V78.76a4.536,4.536,0,1,1,9.072,0v27.473A4.542,4.542,0,0,1,86.547,110.769Zm0-34.546a2.539,2.539,0,0,0-2.536,2.537v27.473a2.536,2.536,0,1,0,5.072,0V78.76A2.539,2.539,0,0,0,86.547,76.223ZM64,110.769a4.542,4.542,0,0,1-4.536-4.537V78.76a4.536,4.536,0,1,1,9.072,0v27.473A4.542,4.542,0,0,1,64,110.769Zm0-34.546a2.539,2.539,0,0,0-2.536,2.537v27.473a2.536,2.536,0,1,0,5.072,0V78.76A2.539,2.539,0,0,0,64,76.223ZM41.453,110.769a4.542,4.542,0,0,1-4.536-4.537V78.76a4.536,4.536,0,1,1,9.072,0v27.473A4.542,4.542,0,0,1,41.453,110.769Zm0-34.546a2.539,2.539,0,0,0-2.536,2.537v27.473a2.536,2.536,0,1,0,5.072,0V78.76A2.539,2.539,0,0,0,41.453,76.223Zm45.094-12.06a4.541,4.541,0,0,1-4.536-4.536V32.154a4.536,4.536,0,1,1,9.072,0V59.627A4.541,4.541,0,0,1,86.547,64.164Zm0-34.546a2.539,2.539,0,0,0-2.536,2.537V59.627a2.536,2.536,0,1,0,5.072,0V32.154A2.539,2.539,0,0,0,86.547,29.618ZM64,64.164a4.541,4.541,0,0,1-4.536-4.536V32.154a4.536,4.536,0,1,1,9.072,0V59.627A4.541,4.541,0,0,1,64,64.164Zm0-34.546a2.539,2.539,0,0,0-2.536,2.537V59.627a2.536,2.536,0,0,0,5.072,0V32.154A2.539,2.539,0,0,0,64,29.618ZM41.453,64.164a4.541,4.541,0,0,1-4.536-4.536V32.154a4.536,4.536,0,1,1,9.072,0V59.627A4.541,4.541,0,0,1,41.453,64.164Zm0-34.546a2.539,2.539,0,0,0-2.536,2.537V59.627a2.536,2.536,0,0,0,5.072,0V32.154A2.539,2.539,0,0,0,41.453,29.618Z" fill="#2f3a5a"/></svg>
