<svg id="icon" height="512" viewBox="0 0 128 128" width="512" xmlns="http://www.w3.org/2000/svg"><path d="m109.146 35.758-16.619-16.966-14.452-3.266a11.448 11.448 0 0 1 -1.953 3.531 15.489 15.489 0 0 1 -23.679.506 12.993 12.993 0 0 1 -2.343-4.037l-11.719 3.118-20.981 17.12 12.21 20.15 7.26-2.914-1.2 17.54h56.908l-3.265-20.3 7.887 2.921z" fill="#ef5361"/><path d="m92.578 71.542h-56.911a1 1 0 0 1 -1-1.068l1.095-15.951-5.783 2.32a1 1 0 0 1 -1.228-.41l-12.209-20.151a1 1 0 0 1 .224-1.293l20.983-17.12a.992.992 0 0 1 .375-.191l11.715-3.119a1 1 0 0 1 1.208.658 11.933 11.933 0 0 0 2.153 3.688 14.5 14.5 0 0 0 11.267 4.907 14.216 14.216 0 0 0 10.873-5.375 10.465 10.465 0 0 0 1.788-3.22 1 1 0 0 1 1.172-.667l14.452 3.267a1 1 0 0 1 .494.276l16.614 16.965a1 1 0 0 1 .109 1.266l-11.948 17.4a1 1 0 0 1 -1.171.372l-6.278-2.322 2.993 18.606a1 1 0 0 1 -.987 1.159zm-55.84-2h54.662l-3.074-19.142a1 1 0 0 1 1.334-1.1l7.153 2.646 11.042-16.076-15.835-16.17-13.315-3.007a13.088 13.088 0 0 1 -1.8 2.983 16.21 16.21 0 0 1 -12.394 6.136 16.382 16.382 0 0 1 -12.824-5.592 14.488 14.488 0 0 1 -2.2-3.5l-10.641 2.835-20.146 16.434 11.323 18.681 6.475-2.6a1 1 0 0 1 1.37 1z" fill="#2f3a5a"/><path d="m92.6 70.638c-4.749 0-10.366-16.914-9.548-33.064.719-14.167 4.658-19.874 4.658-19.874l-9.635-2.178s-3.263 7.212-3.263 20.216h-21.453c0-13-3.263-20.216-3.263-20.216l-9.115 2.426s2.314 5.711 3.427 18.879c1.094 12.947-4.09 33.807-8.84 33.807-2.864 10.747-2.563 35.928-2.308 51.993h27.89v-19.241c.138-10.166 2.935-15.954 2.935-15.954a38.89 38.89 0 0 1 2.935 15.954v19.244h27.89c.255-16.065.556-41.245-2.31-51.992z" fill="#d9e2e9"/><path d="m94.91 123.63h-27.889a1 1 0 0 1 -1-1v-19.244a41.226 41.226 0 0 0 -1.921-13.112 46.276 46.276 0 0 0 -1.95 13.126v19.23a1 1 0 0 1 -1 1h-27.889a1 1 0 0 1 -1-.984c-.229-14.338-.653-41.026 2.342-52.266a1 1 0 0 1 .966-.743 1.966 1.966 0 0 0 1.217-.771c3.65-3.972 7.595-20.5 6.627-31.953-1.085-12.813-3.336-18.53-3.359-18.587a1 1 0 0 1 .671-1.34l9.114-2.427a1 1 0 0 1 1.168.554c.133.294 3.188 7.189 3.346 19.628h19.464c.158-12.439 3.214-19.334 3.347-19.628a1 1 0 0 1 1.136-.563l9.635 2.178a1 1 0 0 1 .6 1.544c-.036.053-3.79 5.717-4.48 19.353-.674 13.305 3.092 27.032 6.892 31.029a2.587 2.587 0 0 0 1.658.984 1 1 0 0 1 .966.743c2.993 11.231 2.569 37.925 2.342 52.266a1 1 0 0 1 -1.003.983zm-26.89-2h25.906c.224-14.171.552-39.038-2.128-50.1a5.049 5.049 0 0 1 -2.3-1.5c-4.166-4.382-8.149-18.49-7.44-32.509.546-10.761 2.916-16.741 4.124-19.14l-7.489-1.693c-.789 2.142-2.878 8.784-2.878 19.052a1 1 0 0 1 -1 1h-21.457a1 1 0 0 1 -1-1c0-10.22-2.068-16.846-2.866-19.021l-7.211 1.92c.713 2.217 2.267 7.967 3.123 18.105.948 11.218-2.793 28.737-7.146 33.475a4.374 4.374 0 0 1 -1.881 1.293c-2.687 11.06-2.356 35.94-2.132 50.117h25.905v-18.243c.14-10.286 2.916-16.144 3.035-16.386a1 1 0 0 1 .9-.565 1 1 0 0 1 .9.567 39.587 39.587 0 0 1 3.034 16.4z" fill="#2f3a5a"/><path d="m64.014 13.312c-37.214 0-62.896-6.873-63.279-6.978a1 1 0 0 1 .529-1.929c.571.156 57.881 15.475 125.512-.01a1 1 0 0 1 .447 1.949 284.1 284.1 0 0 1 -63.209 6.968z" fill="#2f3a5a"/><path d="m80.434 8.747h3.605v9.82h-3.605z" fill="#9297ab"/><path d="m84.039 19.567h-3.605a1 1 0 0 1 -1-1v-9.82a1 1 0 0 1 1-1h3.605a1 1 0 0 1 1 1v9.82a1 1 0 0 1 -1 1zm-2.605-2h1.605v-7.82h-1.605z" fill="#2f3a5a"/><path d="m44.408 8.747h3.605v9.82h-3.605z" fill="#9297ab"/><path d="m48.014 19.567h-3.606a1 1 0 0 1 -1-1v-9.82a1 1 0 0 1 1-1h3.605a1 1 0 0 1 1 1v9.82a1 1 0 0 1 -.999 1zm-2.605-2h1.605v-7.82h-1.606z" fill="#2f3a5a"/></svg>