<svg id="icon" height="512" viewBox="0 0 128 128" width="512" xmlns="http://www.w3.org/2000/svg"><path d="m96.926 70.869a71.87 71.87 0 0 0 -22.465-51.9l-.5-.488a13.485 13.485 0 0 0 -9.461-3.825l-22.94.044-6.316 10.521a30.26 30.26 0 0 0 -4.344 15.645v76.822a9.31 9.31 0 0 0 9.309 9.312h47.535a9.3 9.3 0 0 0 9.312-9.23c.114-13.04 0-29.075-.13-46.901zm-10.093 11.1a6.218 6.218 0 0 1 -6.219 6.219h-7.83a6.218 6.218 0 0 1 -6.219-6.219v-43.317a6.223 6.223 0 0 1 11.819-2.719 81.232 81.232 0 0 1 8.449 36.026z" fill="#ffc943"/><path d="m80.614 88.19h-7.83a6.218 6.218 0 0 1 -6.219-6.219v-43.319a6.208 6.208 0 0 1 1.53-4.086 6.408 6.408 0 0 0 -1.123-.1 6.552 6.552 0 0 0 -6.561 6.561v45.68a6.562 6.562 0 0 0 6.561 6.561h8.254c3.142 0 10.225-1.9 10.943-8.507-.669 1.088-5.569 4.544-5.555 3.429zm16.312-17.321a71.87 71.87 0 0 0 -22.465-51.9l-.5-.488a13.485 13.485 0 0 0 -9.461-3.825l-22.94.044-.635 1.058 17.3-.049a14.2 14.2 0 0 1 9.963 4.037l.537.521a75.712 75.712 0 0 1 23.692 54.733c.147 18.786.261 35.7.147 49.457a7.978 7.978 0 0 1 -.1 1.254 9.292 9.292 0 0 0 4.591-7.944c.115-13.037.001-29.072-.129-46.898z" fill="#f7b521"/><path d="m87.745 128h-47.537a10.323 10.323 0 0 1 -10.308-10.312v-76.822a31.273 31.273 0 0 1 4.488-16.166l6.606-11 23.5-.05a14.578 14.578 0 0 1 10.158 4.109l.5.486a74.4 74.4 0 0 1 19.9 32.661 74.462 74.462 0 0 1 2.871 19.949c.126 17.319.245 33.678.13 46.917a10.348 10.348 0 0 1 -10.308 10.228zm-45.619-112.3-6.026 10.036a29.273 29.273 0 0 0 -4.2 15.129v76.823a8.321 8.321 0 0 0 8.308 8.312h47.537a8.342 8.342 0 0 0 8.312-8.24c.115-13.222 0-29.573-.13-46.884a70.875 70.875 0 0 0 -22.164-51.189l-.5-.487a12.569 12.569 0 0 0 -8.7-3.544h-.063zm38.488 73.49h-7.83a7.227 7.227 0 0 1 -7.219-7.219v-43.319a7.223 7.223 0 0 1 13.715-3.163 82.672 82.672 0 0 1 8.553 36.471v10.011a7.227 7.227 0 0 1 -7.219 7.219zm-7.83-55.757a5.225 5.225 0 0 0 -5.219 5.219v43.319a5.225 5.225 0 0 0 5.219 5.219h7.831a5.225 5.225 0 0 0 5.219-5.219v-10.012a80.663 80.663 0 0 0 -8.345-35.583 5.235 5.235 0 0 0 -4.705-2.943z" fill="#2f3a5a"/><rect fill="#9297ab" height="14.349" rx="1.656" width="28.872" x="40.559" y="1"/><path d="m69.43 2.66v11.03a1.656 1.656 0 0 1 -1.66 1.66h-25.55a1.656 1.656 0 0 1 -1.66-1.66v-4.38h24.23a1.656 1.656 0 0 0 1.66-1.66v-6.65h1.32a1.656 1.656 0 0 1 1.66 1.66z" fill="#84879c"/><path d="m67.775 16.349h-25.56a2.659 2.659 0 0 1 -2.656-2.656v-11.037a2.659 2.659 0 0 1 2.656-2.656h25.56a2.659 2.659 0 0 1 2.656 2.656v11.037a2.659 2.659 0 0 1 -2.656 2.656zm-25.56-14.349a.657.657 0 0 0 -.656.656v11.037a.657.657 0 0 0 .656.656h25.56a.657.657 0 0 0 .656-.656v-11.037a.657.657 0 0 0 -.656-.656z" fill="#2f3a5a"/><g fill="#707583"><path d="m46.055 12.3a1 1 0 0 1 -1-1v-5.786a1 1 0 0 1 2 0v5.786a1 1 0 0 1 -1 1z"/><path d="m52.015 12.3a1 1 0 0 1 -1-1v-5.786a1 1 0 0 1 2 0v5.786a1 1 0 0 1 -1 1z"/><path d="m57.975 12.3a1 1 0 0 1 -1-1v-5.786a1 1 0 0 1 2 0v5.786a1 1 0 0 1 -1 1z"/><path d="m63.935 12.3a1 1 0 0 1 -1-1v-5.786a1 1 0 0 1 2 0v5.786a1 1 0 0 1 -1 1z"/></g></svg>