<svg id="icon" height="512" viewBox="0 0 128 128" width="512" xmlns="http://www.w3.org/2000/svg"><path d="m119.377 20.731v33.635a9.717 9.717 0 0 1 -1.377.1 10.059 10.059 0 0 1 -9-5.583 10.043 10.043 0 0 1 -18 0 10.052 10.052 0 0 1 -18.007 0 10.043 10.043 0 0 1 -18 0 10.043 10.043 0 0 1 -18 0 10.052 10.052 0 0 1 -18.007 0 10.059 10.059 0 0 1 -9 5.583 9.716 9.716 0 0 1 -1.377-.1v-33.635z" fill="#d9e2e9"/><path d="m119.379 108.258h-110.758a1 1 0 0 1 -1-1v-84.9a1 1 0 0 1 1-1h110.758a1 1 0 0 1 1 1v84.9a1 1 0 0 1 -1 1zm-109.759-2h108.759v-82.9h-108.758z" fill="#2f3a5a"/><path d="m24.332 63.635h26.445v45.479h-26.445z" fill="#e1b378"/><path d="m50.777 110.114h-26.444a1 1 0 0 1 -1-1v-45.479a1 1 0 0 1 1-1h26.444a1 1 0 0 1 1 1v45.479a1 1 0 0 1 -1 1zm-25.445-2h24.445v-43.479h-24.444z" fill="#2f3a5a"/><path d="m61.79 63.637h48.472v30.048h-48.472z" fill="#81dafc"/><path d="m37 31.867h-18l6.428-16.771h15.429z" fill="#ffc943"/><path d="m37 32.867h-18a1 1 0 0 1 -.934-1.358l6.434-16.771a1 1 0 0 1 .934-.642h15.423a1 1 0 0 1 .975 1.224l-3.857 16.771a1 1 0 0 1 -.975.776zm-16.546-2h15.746l3.4-14.767h-13.484z" fill="#2f3a5a"/><path d="m55 31.867h-18l3.857-16.771h15.429z" fill="#81dafc"/><path d="m55 32.867h-18a1 1 0 0 1 -.975-1.224l3.857-16.771a1 1 0 0 1 .975-.776h15.429a1 1 0 0 1 1 1.077l-1.286 16.771a1 1 0 0 1 -1 .923zm-16.744-2h15.818l1.132-14.767h-13.553z" fill="#2f3a5a"/><path d="m73 31.867h-18l1.286-16.771h15.428z" fill="#ffc943"/><path d="m73 32.867h-18a1 1 0 0 1 -1-1.077l1.289-16.77a1 1 0 0 1 1-.923h15.425a1 1 0 0 1 1 .923l1.286 16.771a1 1 0 0 1 -1 1.077zm-16.92-2h15.84l-1.132-14.767h-13.576z" fill="#2f3a5a"/><path d="m91 31.867h-18l-1.286-16.771h15.429z" fill="#81dafc"/><path d="m91 32.867h-18a1 1 0 0 1 -1-.923l-1.283-16.771a1 1 0 0 1 1-1.077h15.426a1 1 0 0 1 .975.776l3.857 16.771a1 1 0 0 1 -.975 1.224zm-17.074-2h15.818l-3.397-14.767h-13.553z" fill="#2f3a5a"/><path d="m109 31.867h-18l-3.857-16.771h15.429z" fill="#ffc943"/><path d="m109 32.867h-18a1 1 0 0 1 -.975-.776l-3.857-16.771a1 1 0 0 1 .975-1.224h15.429a1 1 0 0 1 .934.642l6.428 16.771a1 1 0 0 1 -.934 1.358zm-17.2-2h15.75l-5.666-14.767h-13.484z" fill="#2f3a5a"/><path d="m9.063 16.842-8.063 15.025h18l6.429-16.767h-13.448a3.312 3.312 0 0 0 -2.918 1.742z" fill="#81dafc"/><path d="m19 32.867h-18a1 1 0 0 1 -.881-1.473l8.063-15.024a4.305 4.305 0 0 1 3.8-2.273h13.447a1 1 0 0 1 .934 1.358l-6.43 16.77a1 1 0 0 1 -.933.642zm-16.328-2h15.64l5.663-14.767h-11.994a2.307 2.307 0 0 0 -2.037 1.219z" fill="#2f3a5a"/><path d="m118.937 16.842a3.312 3.312 0 0 0 -2.918-1.746h-13.447l6.428 16.771h18z" fill="#81dafc"/><path d="m127 32.867h-18a1 1 0 0 1 -.934-.642l-6.428-16.771a1 1 0 0 1 .934-1.358h13.447a4.306 4.306 0 0 1 3.8 2.273l8.063 15.025a1 1 0 0 1 -.882 1.473zm-17.312-2h15.641l-7.273-13.552a2.308 2.308 0 0 0 -2.037-1.219h-11.993z" fill="#2f3a5a"/><path d="m1 31.867v6.44a9 9 0 1 0 18 0v-6.44z" fill="#3dbce9"/><path d="m10 48.308a10.012 10.012 0 0 1 -10-10v-6.44a1 1 0 0 1 1-1h18a1 1 0 0 1 1 1v6.44a10.011 10.011 0 0 1 -10 10zm-8-15.441v5.44a8 8 0 1 0 16 0v-5.44z" fill="#2f3a5a"/><path d="m19 31.867v6.44a9 9 0 1 0 18 0v-6.44z" fill="#f7b521"/><path d="m28 48.308a10.012 10.012 0 0 1 -10-10v-6.44a1 1 0 0 1 1-1h18a1 1 0 0 1 1 1v6.44a10.012 10.012 0 0 1 -10 10zm-8-15.441v5.44a8 8 0 1 0 16 0v-5.44z" fill="#2f3a5a"/><path d="m37 31.867v6.44a9 9 0 1 0 18 0v-6.44z" fill="#3dbce9"/><path d="m46 48.308a10.011 10.011 0 0 1 -10-10v-6.44a1 1 0 0 1 1-1h18a1 1 0 0 1 1 1v6.44a10.012 10.012 0 0 1 -10 10zm-8-15.441v5.44a8 8 0 1 0 16 0v-5.44z" fill="#2f3a5a"/><path d="m55 31.867v6.44a9 9 0 1 0 18 0v-6.44z" fill="#f7b521"/><path d="m64 48.308a10.011 10.011 0 0 1 -10-10v-6.44a1 1 0 0 1 1-1h18a1 1 0 0 1 1 1v6.44a10.012 10.012 0 0 1 -10 10zm-8-15.441v5.44a8 8 0 1 0 16 0v-5.44z" fill="#2f3a5a"/><path d="m73 31.867v6.44a9 9 0 0 0 18 0v-6.44z" fill="#3dbce9"/><path d="m82 48.308a10.012 10.012 0 0 1 -10-10v-6.44a1 1 0 0 1 1-1h18a1 1 0 0 1 1 1v6.44a10.012 10.012 0 0 1 -10 10zm-8-15.441v5.44a8 8 0 1 0 16 0v-5.44z" fill="#2f3a5a"/><path d="m91 31.867v6.44a9 9 0 1 0 18 0v-6.44z" fill="#f7b521"/><path d="m100 48.308a10.012 10.012 0 0 1 -10-10v-6.44a1 1 0 0 1 1-1h18a1 1 0 0 1 1 1v6.44a10.012 10.012 0 0 1 -10 10zm-8-15.441v5.44a8 8 0 1 0 16 0v-5.44z" fill="#2f3a5a"/><path d="m109 31.867v6.44a9 9 0 1 0 18 0v-6.44z" fill="#3dbce9"/><path d="m118 48.308a10.012 10.012 0 0 1 -10-10v-6.44a1 1 0 0 1 1-1h18a1 1 0 0 1 1 1v6.44a10.011 10.011 0 0 1 -10 10zm-8-15.441v5.44a8 8 0 1 0 16 0v-5.44z" fill="#2f3a5a"/><path d="m5.121 106.829h117.758v6.075h-117.758z" fill="#d5d6db"/><path d="m122.879 113.9h-117.758a1 1 0 0 1 -1-1v-6.075a1 1 0 0 1 1-1h117.758a1 1 0 0 1 1 1v6.075a1 1 0 0 1 -1 1zm-116.758-2h115.758v-4.075h-115.758z" fill="#2f3a5a"/><circle cx="29.875" cy="86.687" fill="#bd8d5a" r="1.619"/><path d="m90.482 63.637-15.371 30.048h-1.719l15.382-30.048z" fill="#f0f5f9"/><path d="m97.079 63.637-15.371 30.048h-3.427l15.382-30.048z" fill="#f0f5f9"/><path d="m110.259 94.683h-48.465a1 1 0 0 1 -1-1v-30.048a1 1 0 0 1 1-1h48.465a1 1 0 0 1 1 1v30.048a1 1 0 0 1 -1 1zm-47.465-2h46.465v-28.048h-46.465z" fill="#2f3a5a"/></svg>