<svg id="icon" height="512" viewBox="0 0 128 128" width="512" xmlns="http://www.w3.org/2000/svg"><path d="m36.753 35.515a22.243 22.243 0 0 0 -2.453-4.655 6.481 6.481 0 0 0 -4.357-2.7 6.566 6.566 0 0 0 -5.521 2.821 24.039 24.039 0 0 0 -2.874 5.773 66.494 66.494 0 0 1 -17.858 24.908l-.521 3.128a12.283 12.283 0 0 0 7.176 4.37 36.535 36.535 0 0 0 8.534.657c13.264-.02 26.74-.069 39.468-3.8a94.054 94.054 0 0 1 -21.594-30.502z" fill="#e1e6e9"/><path d="m34.3 30.86a14.089 14.089 0 0 1 1.56 2.68 5.194 5.194 0 0 0 -2.06-.66 6.563 6.563 0 0 0 -5.52 2.82 23.563 23.563 0 0 0 -2.87 5.77 66.614 66.614 0 0 1 -17.86 24.91l-.28 1.7a10.807 10.807 0 0 1 -4.1-3.29l.52-3.13a66.536 66.536 0 0 0 17.86-24.91 23.922 23.922 0 0 1 2.87-5.77 6.55 6.55 0 0 1 5.52-2.82 6.472 6.472 0 0 1 4.36 2.7z" fill="#f0f5f9"/><path d="m18.228 70.818a34.819 34.819 0 0 1 -8.115-.685 13.274 13.274 0 0 1 -7.752-4.753l-.249-.34.65-3.9.271-.236a65.526 65.526 0 0 0 17.589-24.529l.313-.774a21.256 21.256 0 0 1 2.7-5.232 7.446 7.446 0 0 1 6.4-3.2 7.368 7.368 0 0 1 5.059 3.088 20.768 20.768 0 0 1 2.379 4.413l.2.445a93.53 93.53 0 0 0 21.358 30.169l1.274 1.2-1.677.492c-12.962 3.8-26.579 3.825-39.748 3.845zm-14-6.294a11.544 11.544 0 0 0 6.349 3.664 35.848 35.848 0 0 0 8.3.63c12.456-.019 25.317-.04 37.511-3.295a95.619 95.619 0 0 1 -20.55-29.6l-.2-.45a18.974 18.974 0 0 0 -2.135-4 5.486 5.486 0 0 0 -3.656-2.312c-1.894-.177-3.637 1.143-4.637 2.437a19.463 19.463 0 0 0 -2.422 4.754l-.318.786a67.534 67.534 0 0 1 -17.852 25.041z" fill="#2f3a5a"/><path d="m52.082 89.516c-4.742 6.432-11.792 10.344-21.606 10.344-20.776 0-29.397-18.036-29.476-40.327h10.047c1.945 18.489 10.808 32.392 29.066 32.392a28.544 28.544 0 0 0 11.969-2.409z" fill="#048faf"/><path d="m121.965 59.529h-120.965c.083 22.292 8.7 40.328 29.479 40.328 17.775 0 26.485-12.848 28.82-30.258h62.666a5.035 5.035 0 0 0 0-10.07z" fill="#81dafc"/><path d="m54.7 85.285c-4.61 8.9-12.414 14.568-24.21 14.568-20.795 0-29.413-18.033-29.49-40.33h7.55c2.154 18 11.028 31.427 28.956 31.427 7.126 0 12.805-2.064 17.194-5.665z" fill="#5fc4f8"/><path d="m30.479 100.858c-19.272 0-30.379-15.058-30.479-41.325a1 1 0 0 1 1-1h120.965a6.035 6.035 0 0 1 0 12.071h-61.8c-2.874 19.52-13.393 30.254-29.686 30.254zm-28.469-40.329c.208 12.305 3.6 38.329 28.469 38.329 19.743 0 26.03-15.983 27.829-29.391a1 1 0 0 1 .992-.867h62.666a4.035 4.035 0 0 0 0-8.071z" fill="#2f3a5a"/><g fill="#89c5cd"><circle cx="30.757" cy="32.066" r=".483"/><circle cx="27.697" cy="45.313" r=".483"/><circle cx="23.504" cy="40.201" r=".483"/><circle cx="34.136" cy="41.711" r=".483"/><circle cx="37.585" cy="48.496" r=".483"/><circle cx="18.04" cy="50.142" r=".483"/><circle cx="43.64" cy="53.213" r=".483"/><circle cx="32.205" cy="52.731" r=".483"/><circle cx="23.987" cy="54.828" r=".483"/><circle cx="30.275" cy="38.753" r=".483"/><circle cx="25.704" cy="34.384" r=".483"/></g></svg>