<?xml version="1.0"?>
<svg xmlns="http://www.w3.org/2000/svg" id="Icons" viewBox="0 0 74 74" width="512" height="512"><path d="M30.731,56.687a3.946,3.946,0,0,1-1.021-.13c-1.567-.419-2.589-1.723-3.576-2.984a8.082,8.082,0,0,0-1.955-2.021,8.2,8.2,0,0,0-2.776-.705c-1.57-.227-3.192-.461-4.318-1.586s-1.36-2.749-1.587-4.319a8.216,8.216,0,0,0-.705-2.776,8.092,8.092,0,0,0-2.021-1.955c-1.261-.987-2.564-2.008-2.983-3.576-.4-1.505.2-3.01.781-4.465a8.36,8.36,0,0,0,.792-2.826,8.36,8.36,0,0,0-.792-2.826c-.582-1.455-1.184-2.96-.781-4.465.419-1.568,1.723-2.589,2.983-3.576a8.1,8.1,0,0,0,2.021-1.955,8.191,8.191,0,0,0,.7-2.776c.227-1.57.461-3.193,1.587-4.319S19.832,8.066,21.4,7.84a8.2,8.2,0,0,0,2.776-.706,8.082,8.082,0,0,0,1.955-2.021c.987-1.261,2.009-2.564,3.575-2.983,1.508-.4,3.011.2,4.467.781A8.345,8.345,0,0,0,37,3.7a8.345,8.345,0,0,0,2.825-.792c1.455-.582,2.959-1.182,4.465-.781,1.567.419,2.589,1.723,3.576,2.984a8.082,8.082,0,0,0,1.955,2.021,8.2,8.2,0,0,0,2.775.7c1.57.227,3.193.461,4.319,1.587s1.36,2.749,1.587,4.318a8.216,8.216,0,0,0,.705,2.776,8.094,8.094,0,0,0,2.021,1.956c1.261.987,2.564,2.008,2.983,3.575.4,1.505-.2,3.01-.781,4.466a8.357,8.357,0,0,0-.792,2.826,8.338,8.338,0,0,0,.793,2.826c.581,1.455,1.183,2.96.78,4.465-.419,1.568-1.723,2.589-2.983,3.576a8.1,8.1,0,0,0-2.021,1.955,8.191,8.191,0,0,0-.7,2.776c-.227,1.57-.461,3.193-1.587,4.319s-2.749,1.36-4.318,1.587a8.19,8.19,0,0,0-2.776.705,8.082,8.082,0,0,0-1.955,2.021c-.987,1.261-2.008,2.565-3.575,2.984-1.507.4-3.011-.2-4.467-.781A8.357,8.357,0,0,0,37,54.982a8.347,8.347,0,0,0-2.825.793A9.606,9.606,0,0,1,30.731,56.687ZM30.73,4a1.946,1.946,0,0,0-.506.062c-.921.246-1.7,1.236-2.518,2.285A9.558,9.558,0,0,1,25.18,8.866a9.7,9.7,0,0,1-3.492.954A5.877,5.877,0,0,0,18.5,10.84a5.885,5.885,0,0,0-1.021,3.191,9.672,9.672,0,0,1-.953,3.492A9.545,9.545,0,0,1,14,20.051c-1.049.82-2.038,1.6-2.285,2.517a5.827,5.827,0,0,0,.706,3.207,9.85,9.85,0,0,1,.936,3.568,9.85,9.85,0,0,1-.936,3.568,5.828,5.828,0,0,0-.706,3.207c.247.921,1.237,1.7,2.285,2.518a9.542,9.542,0,0,1,2.519,2.527,9.681,9.681,0,0,1,.954,3.493,5.875,5.875,0,0,0,1.021,3.19,5.877,5.877,0,0,0,3.189,1.021,9.692,9.692,0,0,1,3.493.953,9.558,9.558,0,0,1,2.527,2.519c.821,1.048,1.6,2.039,2.519,2.285a5.841,5.841,0,0,0,3.205-.707A9.857,9.857,0,0,1,37,52.982a9.847,9.847,0,0,1,3.567.936,5.8,5.8,0,0,0,3.208.706c.921-.246,1.7-1.236,2.517-2.285a9.563,9.563,0,0,1,2.528-2.52,9.687,9.687,0,0,1,3.492-.953,5.877,5.877,0,0,0,3.19-1.021,5.883,5.883,0,0,0,1.021-3.19,9.672,9.672,0,0,1,.953-3.492A9.536,9.536,0,0,1,60,38.635c1.048-.821,2.038-1.6,2.285-2.518a5.827,5.827,0,0,0-.706-3.206,9.85,9.85,0,0,1-.936-3.568,9.85,9.85,0,0,1,.936-3.568,5.831,5.831,0,0,0,.706-3.208c-.247-.921-1.236-1.7-2.284-2.517a9.535,9.535,0,0,1-2.52-2.528,9.678,9.678,0,0,1-.954-3.493A5.871,5.871,0,0,0,55.5,10.84a5.869,5.869,0,0,0-3.19-1.022,9.7,9.7,0,0,1-3.492-.953,9.553,9.553,0,0,1-2.527-2.52c-.821-1.048-1.6-2.038-2.518-2.284a5.814,5.814,0,0,0-3.207.706A9.847,9.847,0,0,1,37,5.7a9.847,9.847,0,0,1-3.567-.936A8.16,8.16,0,0,0,30.73,4Z"/><path d="M37,47.811A18.468,18.468,0,1,1,55.468,29.343,18.488,18.488,0,0,1,37,47.811Zm0-34.936A16.468,16.468,0,1,0,53.468,29.343,16.486,16.486,0,0,0,37,12.875Z"/><path d="M44.208,72a1,1,0,0,1-.934-.643L36.8,54.414a.991.991,0,0,1-.066-.357,1,1,0,0,1,1.963-.281L44.445,68.82l3.442-5.231a1,1,0,0,1,1.091-.417l6.038,1.6L49.573,50.559a1,1,0,0,1,1.867-.716l6.143,16.033A1,1,0,0,1,56.394,67.2L49.162,65.29l-4.119,6.26A1,1,0,0,1,44.208,72Z"/><path d="M29.792,72a1,1,0,0,1-.835-.45l-4.119-6.26L17.606,67.2a1,1,0,0,1-1.189-1.324l6.131-16.021a1,1,0,1,1,1.867.715l-5.433,14.2,6.039-1.6a1,1,0,0,1,1.091.417l3.442,5.231,5.77-15.091a1,1,0,0,1,1.945.316,1.054,1.054,0,0,1-.066.369L30.726,71.357a1,1,0,0,1-.934.643Z"/><path d="M29.743,38a1,1,0,0,1-.707-1.707L43.861,21.461a1,1,0,1,1,1.414,1.414L30.45,37.709A1,1,0,0,1,29.743,38Z"/><path d="M42.1,38.383a3.9,3.9,0,1,1,3.9-3.9A3.9,3.9,0,0,1,42.1,38.383Zm0-5.791a1.9,1.9,0,1,0,1.9,1.9A1.9,1.9,0,0,0,42.1,32.592Z"/><path d="M31.9,28.093a3.9,3.9,0,1,1,3.9-3.9A3.9,3.9,0,0,1,31.9,28.093Zm0-5.791a1.9,1.9,0,1,0,1.9,1.9A1.9,1.9,0,0,0,31.9,22.3Z"/></svg>
