<?xml version="1.0"?>
<svg xmlns="http://www.w3.org/2000/svg" id="icon" viewBox="0 0 128 128" width="512" height="512"><path d="M2.879,40.535c.236.5.494.987.765,1.46l-.008,0a170.765,170.765,0,0,0,77.908,78.066,20.032,20.032,0,0,0,1.863,1,19.824,19.824,0,0,0,26.364-9.536c2.038-4.348,4.09-12.75,3.388-17.945a3.37,3.37,0,0,0-1.906-2.607L88.719,80.412a3.37,3.37,0,0,0-3.223.2C81.054,83.4,75.909,90.351,73.871,94.7c-.179.382-.34.768-.493,1.155A155.447,155.447,0,0,1,28.064,50.573c.4-.155.789-.319,1.178-.5,4.348-2.038,11.3-7.183,14.084-11.625a3.37,3.37,0,0,0,.2-3.223L32.967,12.689a3.37,3.37,0,0,0-2.607-1.906c-5.2-.7-13.6,1.35-17.945,3.388A19.824,19.824,0,0,0,2.879,40.535Z" fill="#ef5361"/><path d="M109.77,111.53a19.82,19.82,0,0,1-26.36,9.53,17.624,17.624,0,0,1-1.87-1A170.7,170.7,0,0,1,3.64,42v-.01c-.27-.47-.53-.95-.76-1.46a20.562,20.562,0,0,1-1.11-2.94A170.287,170.287,0,0,0,32.03,78.73,170.622,170.622,0,0,0,77.45,111.3c.6.36,1.22.69,1.87,1a19.832,19.832,0,0,0,26.36-9.54,44.274,44.274,0,0,0,3.38-12.82l2.19,1.03a3.37,3.37,0,0,1,1.91,2.61C113.86,98.78,111.81,107.18,109.77,111.53Z" fill="#da2a47"/><path d="M91.788,123.936a20.7,20.7,0,0,1-8.807-1.968,21.143,21.143,0,0,1-1.955-1.048A172.553,172.553,0,0,1,2.737,42.438c-.011-.023-.021-.046-.03-.069-.284-.5-.524-.963-.733-1.411A20.846,20.846,0,0,1,11.99,13.266c4.146-1.944,12.881-4.233,18.5-3.474a4.359,4.359,0,0,1,3.378,2.472L44.435,34.8a4.356,4.356,0,0,1-.26,4.178c-3.011,4.8-10.359,10.056-14.507,12l-.108.05A153.42,153.42,0,0,0,72.926,94.36c.013-.029.026-.058.04-.087,1.943-4.146,7.194-11.5,12-14.506a4.356,4.356,0,0,1,4.179-.262l22.534,10.563a4.36,4.36,0,0,1,2.473,3.378c.758,5.62-1.53,14.357-3.475,18.5A20.854,20.854,0,0,1,91.788,123.936ZM4.595,41.683a170.627,170.627,0,0,0,77.391,77.485,20.763,20.763,0,0,0,1.846.99,18.847,18.847,0,0,0,25.034-9.055c2.118-4.52,3.951-12.585,3.3-17.387a2.367,2.367,0,0,0-1.34-1.836L88.295,81.317a2.362,2.362,0,0,0-2.268.146c-4.106,2.573-9.133,9.141-11.251,13.661-.171.364-.323.73-.468,1.1a1,1,0,0,1-1.477.472A155.488,155.488,0,0,1,27.227,51.119a1,1,0,0,1,.472-1.477c.375-.147.75-.3,1.121-.477,4.52-2.119,11.087-7.145,13.66-11.251a2.364,2.364,0,0,0,.145-2.267L32.062,13.113a2.365,2.365,0,0,0-1.835-1.339c-4.806-.652-12.868,1.184-17.387,3.3A18.846,18.846,0,0,0,3.784,40.11h0c.2.433.441.886.728,1.386A1.017,1.017,0,0,1,4.595,41.683Z" fill="#2f3a5a"/><path d="M38.478,43.812a26.12,26.12,0,0,0,4.848-5.366,3.37,3.37,0,0,0,.2-3.223L32.967,12.689a3.37,3.37,0,0,0-2.607-1.906,26.12,26.12,0,0,0-7.226.293Z" fill="#d9e2e9"/><path d="M38.479,44.812a1,1,0,0,1-.905-.576L22.229,11.5a1,1,0,0,1,.749-1.412,27.1,27.1,0,0,1,7.516-.3,4.358,4.358,0,0,1,3.379,2.473L44.435,34.8a4.356,4.356,0,0,1-.26,4.178,27.03,27.03,0,0,1-5.037,5.588A1,1,0,0,1,38.479,44.812ZM24.613,11.877l14.2,30.286a22.7,22.7,0,0,0,3.67-4.249,2.364,2.364,0,0,0,.145-2.267L32.062,13.113a2.364,2.364,0,0,0-1.836-1.339A22.627,22.627,0,0,0,24.613,11.877Z" fill="#2f3a5a"/><path d="M80.13,85.463A26.12,26.12,0,0,1,85.5,80.615a3.37,3.37,0,0,1,3.223-.2l22.533,10.563a3.37,3.37,0,0,1,1.906,2.607,26.12,26.12,0,0,1-.293,7.226Z" fill="#d9e2e9"/><path d="M112.865,101.808a1,1,0,0,1-.425-.095L79.705,86.368a1,1,0,0,1-.327-1.564,27.015,27.015,0,0,1,5.587-5.036,4.356,4.356,0,0,1,4.179-.262l22.534,10.563a4.36,4.36,0,0,1,2.473,3.378,27.029,27.029,0,0,1-.3,7.517,1,1,0,0,1-.987.844ZM81.779,85.132l30.285,14.2a22.726,22.726,0,0,0,.1-5.612,2.367,2.367,0,0,0-1.34-1.836L88.295,81.317a2.366,2.366,0,0,0-2.268.145A22.727,22.727,0,0,0,81.779,85.132Z" fill="#2f3a5a"/><path d="M93.175,5.059C74.493,5.059,59.349,17,59.349,31.72c0,8.817,5.433,16.631,13.8,21.484L68.072,66.792l13.655-9.98a41.994,41.994,0,0,0,11.447,1.569C111.856,58.381,127,46.444,127,31.72S111.856,5.059,93.175,5.059Z" fill="#81dafc"/><path d="M127,31.72c0,14.72-15.14,26.66-33.83,26.66a41.712,41.712,0,0,1-11.44-1.57L68.07,66.79l3.43-9.17,8.03-5.87a41.73,41.73,0,0,0,11.45,1.57c18.68,0,33.82-11.93,33.82-26.66a21.626,21.626,0,0,0-.86-6.02A21.835,21.835,0,0,1,127,31.72Z" fill="#3dbce9"/><path d="M68.072,67.792a1,1,0,0,1-.937-1.35l4.786-12.806C63.405,48.418,58.349,40.28,58.349,31.72c0-15.252,15.623-27.661,34.826-27.661S128,16.467,128,31.72,112.378,59.381,93.175,59.381A43.052,43.052,0,0,1,81.927,57.9L68.662,67.6A1,1,0,0,1,68.072,67.792Zm25.1-61.733c-18.1,0-32.826,11.512-32.826,25.661,0,8.08,4.974,15.788,13.3,20.619a1,1,0,0,1,.435,1.215l-3.909,10.46L81.138,56A1,1,0,0,1,82,55.85a40.988,40.988,0,0,0,11.175,1.531c18.1,0,32.825-11.512,32.825-25.661S111.274,6.059,93.175,6.059Z" fill="#2f3a5a"/><circle cx="79.006" cy="31.198" r="4.727" fill="#ebf0f3"/><path d="M79.006,36.925A5.727,5.727,0,1,1,84.733,31.2,5.734,5.734,0,0,1,79.006,36.925Zm0-9.454A3.727,3.727,0,1,0,82.733,31.2,3.731,3.731,0,0,0,79.006,27.472Z" fill="#2f3a5a"/><circle cx="93.174" cy="31.198" r="4.727" fill="#ebf0f3"/><path d="M93.175,36.925A5.727,5.727,0,1,1,98.9,31.2,5.734,5.734,0,0,1,93.175,36.925Zm0-9.454A3.727,3.727,0,1,0,96.9,31.2,3.731,3.731,0,0,0,93.175,27.472Z" fill="#2f3a5a"/><circle cx="107.343" cy="31.198" r="4.727" fill="#ebf0f3"/><path d="M107.343,36.925a5.727,5.727,0,1,1,5.727-5.727A5.734,5.734,0,0,1,107.343,36.925Zm0-9.454a3.727,3.727,0,1,0,3.727,3.727A3.731,3.731,0,0,0,107.343,27.472Z" fill="#2f3a5a"/></svg>
