<svg id="icon" height="512" viewBox="0 0 128 128" width="512" xmlns="http://www.w3.org/2000/svg"><path d="m124.857 45.115a5.4 5.4 0 0 0 -7.911 1.574l-5.825 10.159v-37.175a5.191 5.191 0 0 0 -4.549-5.237 5.045 5.045 0 0 0 -5.54 5.021v-4.145a5.191 5.191 0 0 0 -4.549-5.237 5.045 5.045 0 0 0 -5.54 5.021v4.361a5.045 5.045 0 0 0 -5.54-5.021 5.191 5.191 0 0 0 -4.549 5.237v7.813a5.045 5.045 0 0 0 -5.54-5.021 5.191 5.191 0 0 0 -4.547 5.235v65h40.354v-3.081a30.781 30.781 0 0 1 3.272-13.81l12-23.9a5.4 5.4 0 0 0 -1.536-6.794z" fill="#d9e2e9"/><path d="m77.453 22.737.02-.009c-.11-.04-.229-.06-.343-.092s-.249-.077-.38-.1a4.376 4.376 0 0 0 -3.06.464 5.678 5.678 0 0 0 -2.923 5.028v64.665h3.323l-.955-57.735a30.312 30.312 0 0 1 .673-5.3 2.979 2.979 0 0 1 4.876-1.628 5.892 5.892 0 0 1 2.173 4.108v-4.647a5.038 5.038 0 0 0 -3.404-4.754z" fill="#f0f5f9"/><path d="m106.076 14.414a5.034 5.034 0 0 0 -5.04 5.04v-4.354a5.045 5.045 0 1 0 -10.09 0v4.355a5.045 5.045 0 0 0 -10.09 0v4.653a5.045 5.045 0 1 1 10.09 0v-4.366a5.045 5.045 0 1 1 10.09 0v4.365a5.045 5.045 0 1 1 10.09 0v-4.652a5.043 5.043 0 0 0 -5.05-5.041z" fill="#f0f5f9"/><path d="m124.857 45.111a5.394 5.394 0 0 0 -7.907 1.577l-5.824 10.159a1.236 1.236 0 0 0 2.309.615l3.515-6.131a5.392 5.392 0 0 1 7.907-1.568 5.148 5.148 0 0 1 1.607 1.984 5.388 5.388 0 0 0 -1.607-6.636z" fill="#f0f5f9"/><path d="m70.766 92.693h40.36v4.653h-40.36z" fill="#d9e2e9"/><g fill="#2f3a5a"><path d="m111.122 93.7h-40.354a1 1 0 0 1 -1-1v-65a6.209 6.209 0 0 1 5.454-6.233 6.082 6.082 0 0 1 4.634 1.533v-3.326a6.21 6.21 0 0 1 5.454-6.234 6.083 6.083 0 0 1 4.636 1.526 6.046 6.046 0 0 1 6.633-5.887 6.2 6.2 0 0 1 5.445 5.894 6.094 6.094 0 0 1 4.643-1.532 6.209 6.209 0 0 1 5.454 6.233v33.42l3.958-6.9a6.4 6.4 0 0 1 11.2 6.18l-10.612 21.133a42.982 42.982 0 0 0 -4.545 19.193 1 1 0 0 1 -1 1zm-39.354-2h38.365a45.014 45.014 0 0 1 4.747-19.09l10.62-21.149a4.4 4.4 0 0 0 -7.688-4.266l-5.82 10.15a1 1 0 0 1 -1.868-.5v-37.172a4.2 4.2 0 0 0 -3.644-4.242 4.007 4.007 0 0 0 -3.12 1.032 4.054 4.054 0 0 0 -1.325 2.994 1 1 0 0 1 -2 0v-4.145a4.2 4.2 0 0 0 -3.645-4.242 4.008 4.008 0 0 0 -3.121 1.03 4.055 4.055 0 0 0 -1.325 3v4.361a1 1 0 0 1 -2 0 4.055 4.055 0 0 0 -1.325-2.994 4.006 4.006 0 0 0 -3.12-1.032 4.2 4.2 0 0 0 -3.644 4.242v7.813a1 1 0 1 1 -2 0 4.045 4.045 0 0 0 -4.445-4.025 4.194 4.194 0 0 0 -3.642 4.235z"/><path d="m80.856 56.3a1 1 0 0 1 -1-1v-27.813a1 1 0 0 1 2 0v27.813a1 1 0 0 1 -1 1z"/><path d="m90.944 56.3a1 1 0 0 1 -1-1v-35.843a1 1 0 0 1 2 0v35.843a1 1 0 0 1 -1 1z"/><path d="m101.033 56.3a1 1 0 0 1 -1-1v-35.843a1 1 0 0 1 2 0v35.843a1 1 0 0 1 -1 1z"/></g><path d="m111.141 92.696h-40.412l-2.884 25.255h47.834z" fill="#d9e2e9"/><path d="m115.679 118.951h-47.834a1 1 0 0 1 -.994-1.113l2.883-25.255a1 1 0 0 1 .994-.887h40.412a1 1 0 0 1 .984.823l4.539 25.255a1 1 0 0 1 -.984 1.177zm-46.713-2h45.518l-4.184-23.251h-38.679z" fill="#2f3a5a"/><path d="m52.684 22.466a5.045 5.045 0 0 0 -5.54 5.021v-7.813a5.191 5.191 0 0 0 -4.544-5.238 5.045 5.045 0 0 0 -5.54 5.021v-4.357a5.045 5.045 0 0 0 -5.54-5.021 5.191 5.191 0 0 0 -4.549 5.237v4.145a5.045 5.045 0 0 0 -5.54-5.021 5.191 5.191 0 0 0 -4.549 5.237v37.171l-5.829-10.159a5.4 5.4 0 0 0 -9.444 5.221l11.655 23.217a34 34 0 0 1 3.614 15.255v2.318h40.355v-65a5.191 5.191 0 0 0 -4.549-5.234z" fill="#d9e2e9"/><path d="m50.547 22.737-.02-.009c.11-.04.229-.06.343-.092s.249-.077.379-.1a4.375 4.375 0 0 1 3.061.464 5.678 5.678 0 0 1 2.923 5.028v64.665h-3.323l.955-57.735a30.312 30.312 0 0 0 -.673-5.3 2.979 2.979 0 0 0 -4.876-1.628 5.892 5.892 0 0 0 -2.173 4.108v-4.647a5.038 5.038 0 0 1 3.404-4.754z" fill="#f0f5f9"/><path d="m16.874 24.108a5.045 5.045 0 1 1 10.09 0v-4.366a5.045 5.045 0 1 1 10.09 0v4.365a5.045 5.045 0 1 1 10.09 0v-4.652a5.045 5.045 0 0 0 -10.09 0v-4.355a5.045 5.045 0 1 0 -10.09 0v4.355a5.045 5.045 0 0 0 -10.09 0z" fill="#f0f5f9"/><path d="m11.05 46.688a5.393 5.393 0 0 0 -9.515 5.06 5.148 5.148 0 0 1 1.607-1.984 5.392 5.392 0 0 1 7.907 1.568l3.515 6.131a1.236 1.236 0 0 0 2.309-.615z" fill="#f0f5f9"/><path d="m16.874 92.693h40.36v4.653h-40.36z" fill="#d9e2e9"/><path d="m57.232 93.7h-40.354a1 1 0 0 1 -1-1 42.982 42.982 0 0 0 -4.546-19.188l-10.617-21.153a6.4 6.4 0 0 1 11.2-6.175l3.963 6.91v-33.421a6.209 6.209 0 0 1 5.454-6.233 6.092 6.092 0 0 1 4.643 1.532 6.2 6.2 0 0 1 5.445-5.894 6.046 6.046 0 0 1 6.633 5.887 6.1 6.1 0 0 1 4.637-1.525 6.21 6.21 0 0 1 5.454 6.233v3.327a6.109 6.109 0 0 1 4.634-1.524 6.209 6.209 0 0 1 5.454 6.224v65a1 1 0 0 1 -1 1zm-39.365-2h38.365v-64a4.194 4.194 0 0 0 -3.644-4.242 4.045 4.045 0 0 0 -4.445 4.025 1 1 0 1 1 -2 0v-7.809a4.2 4.2 0 0 0 -3.643-4.242 4.011 4.011 0 0 0 -3.12 1.032 4.055 4.055 0 0 0 -1.325 2.994 1 1 0 0 1 -2 0v-4.358a4.045 4.045 0 0 0 -4.445-4.03 4.2 4.2 0 0 0 -3.644 4.242v4.145a1 1 0 0 1 -2 0 4.054 4.054 0 0 0 -1.325-2.994 4.006 4.006 0 0 0 -3.12-1.032 4.2 4.2 0 0 0 -3.644 4.242v37.175a1 1 0 0 1 -1.868.5l-5.823-10.161a4.4 4.4 0 0 0 -7.686 4.262l10.62 21.161a45.014 45.014 0 0 1 4.747 19.09z" fill="#2f3a5a"/><path d="m47.144 27.487v27.816" fill="#d9e2e9"/><path d="m47.144 56.3a1 1 0 0 1 -1-1v-27.813a1 1 0 0 1 2 0v27.813a1 1 0 0 1 -1 1z" fill="#2f3a5a"/><path d="m37.056 19.457v35.846" fill="#d9e2e9"/><path d="m37.056 56.3a1 1 0 0 1 -1-1v-35.843a1 1 0 0 1 2 0v35.843a1 1 0 0 1 -1 1z" fill="#2f3a5a"/><path d="m26.967 19.457v35.846" fill="#d9e2e9"/><path d="m26.967 56.3a1 1 0 0 1 -1-1v-35.843a1 1 0 0 1 2 0v35.843a1 1 0 0 1 -1 1z" fill="#2f3a5a"/><path d="m16.859 92.696h40.412l2.884 25.255h-47.834z" fill="#d9e2e9"/><path d="m60.155 118.951h-47.834a1 1 0 0 1 -.984-1.177l4.539-25.255a1 1 0 0 1 .984-.823h40.411a1 1 0 0 1 .994.887l2.883 25.255a1 1 0 0 1 -.994 1.113zm-46.638-2h45.517l-2.655-23.251h-38.679z" fill="#2f3a5a"/></svg>