<svg id="icon" height="512" viewBox="0 0 128 128" width="512" xmlns="http://www.w3.org/2000/svg"><path d="m42.96 19.278 4.17-18.278h35.308l1.274 25.356-18.928 5.367z" fill="#3dbce9"/><path d="m64.784 32.723a1 1 0 0 1 -.5-.131l-21.819-12.445a1 1 0 0 1 -.479-1.091l4.169-18.279a1 1 0 0 1 .975-.777h35.308a1 1 0 0 1 1 .95l1.273 25.356a1 1 0 0 1 -.727 1.012l-18.927 5.367a.992.992 0 0 1 -.273.038zm-20.684-13.946 20.815 11.869 17.758-5.035-1.186-23.611h-33.559z" fill="#2f3a5a"/><path d="m112.837 18.992h-29.015l-19.038 12.731-18.068-12.731h-31.553a6.323 6.323 0 0 0 -6.323 6.323v95.362a6.323 6.323 0 0 0 6.323 6.323h97.673a6.323 6.323 0 0 0 6.323-6.323v-95.362a6.323 6.323 0 0 0 -6.322-6.323z" fill="#81dafc"/><g opacity=".5"><path d="m119.132 24.673a.611.611 0 0 0 -.139-.011h-29.018l-19.035 12.738-18.07-12.738h-31.556a6.318 6.318 0 0 0 -6.32 6.32v95.365q0 .321.032.643a6.3 6.3 0 0 1 -6.181-6.309v-95.366a6.318 6.318 0 0 1 6.32-6.315h31.556l18.06 12.725 19.045-12.725h29.007a6.325 6.325 0 0 1 6.299 5.673z" fill="#fff"/></g><path d="m112.837 128h-97.674a7.331 7.331 0 0 1 -7.323-7.323v-95.362a7.331 7.331 0 0 1 7.323-7.323h31.554a1 1 0 0 1 .576.183l17.507 12.335 18.468-12.35a1 1 0 0 1 .556-.169h29.015a7.331 7.331 0 0 1 7.323 7.323v95.362a7.331 7.331 0 0 1 -7.325 7.324zm-97.674-108.008a5.329 5.329 0 0 0 -5.323 5.323v95.362a5.329 5.329 0 0 0 5.323 5.323h97.674a5.329 5.329 0 0 0 5.323-5.323v-95.362a5.329 5.329 0 0 0 -5.323-5.323h-28.711l-18.786 12.562a1 1 0 0 1 -1.132-.014l-17.808-12.548z" fill="#2f3a5a"/><path d="m58.65 31.723h10.699v95.277h-10.699z" fill="#81dafc"/><path d="m69.35 128h-10.7a1 1 0 0 1 -1-1v-95.277a1 1 0 0 1 1-1h10.7a1 1 0 0 1 1 1v95.277a1 1 0 0 1 -1 1zm-9.7-2h8.7v-93.277h-8.7z" fill="#2f3a5a"/><path d="m82.438 1-17.654 30.723 21.611 12.994 6.121-25.987z" fill="#81dafc"/><path d="m86.4 45.717a1 1 0 0 1 -.516-.143l-21.615-12.994a1 1 0 0 1 -.352-1.355l17.654-30.725a1 1 0 0 1 .867-.5 1 1 0 0 1 .867.506l10.08 17.729a1 1 0 0 1 .1.723l-6.12 25.987a1 1 0 0 1 -.974.771zm-20.26-14.346 19.6 11.783 5.716-24.271-9.022-15.868z" fill="#2f3a5a"/><path d="m47.13 1 17.654 30.723-21.611 12.994-6.121-25.987z" fill="#81dafc"/><path d="m43.173 45.717a1 1 0 0 1 -.974-.771l-6.121-25.987a1 1 0 0 1 .1-.724l10.083-17.729a1 1 0 0 1 .867-.506 1 1 0 0 1 .872.5l17.651 30.725a1 1 0 0 1 -.351 1.355l-21.612 12.994a1 1 0 0 1 -.515.143zm-5.058-26.835 5.717 24.271 19.6-11.783-16.297-28.355z" fill="#2f3a5a"/><path d="m78.65 64.751h31.87v35.503h-31.87z" fill="#81dafc"/><path d="m110.521 101.254h-31.871a1 1 0 0 1 -1-1v-35.5a1 1 0 0 1 1-1h31.87a1 1 0 0 1 1 1v35.5a1 1 0 0 1 -.999 1zm-30.87-2h29.87v-33.5h-29.871z" fill="#2f3a5a"/><path d="m78.65 64.751h31.87v8.629h-31.87z" fill="#81dafc"/><path d="m110.521 74.38h-31.871a1 1 0 0 1 -1-1v-8.629a1 1 0 0 1 1-1h31.87a1 1 0 0 1 1 1v8.629a1 1 0 0 1 -.999 1zm-30.87-2h29.87v-6.629h-29.871z" fill="#2f3a5a"/><g fill="#3dbce9"><circle cx="63.838" cy="54.933" r="1.802"/><circle cx="63.838" cy="78.666" r="1.802"/><circle cx="63.838" cy="102.398" r="1.802"/></g><path d="m27.907 47.721-1.25-6.472-1.949 7.528a6.723 6.723 0 0 1 -4.893 4.611l-6.533 1.544 6.174 1.246a6.723 6.723 0 0 1 5.094 4.608l1.706 7.83 2-6.86a6.723 6.723 0 0 1 5.244-5.336l7.152-1.487-7.5-1.605a6.723 6.723 0 0 1 -5.245-5.607z" fill="#f0f5f9"/><path d="m26.257 69.617h-.035a1 1 0 0 1 -.942-.787l-1.707-7.83a5.7 5.7 0 0 0 -4.315-3.841l-6.174-1.245a1 1 0 0 1 -.032-1.954l6.532-1.544a5.74 5.74 0 0 0 4.166-3.926l1.939-7.49a1 1 0 0 1 .968-.75h.031a1 1 0 0 1 .95.81l1.25 6.472c0 .015.006.03.008.045a5.747 5.747 0 0 0 4.466 4.773l7.5 1.6a1 1 0 0 1 -.006 1.957l-7.156 1.493a5.7 5.7 0 0 0 -4.459 4.543l-2.024 6.957a1 1 0 0 1 -.96.717zm-8.3-14.761 1.7.342a7.72 7.72 0 0 1 5.852 5.294l.891 4.078.9-3.093a7.653 7.653 0 0 1 6-6.036l2.512-.522-2.863-.613a7.757 7.757 0 0 1 -6.022-6.418l-.405-2.1-.84 3.241a7.758 7.758 0 0 1 -5.631 5.334z" fill="#2f3a5a"/><path d="m43.53 67.814-.757-3.914-1.18 4.559a4.071 4.071 0 0 1 -2.963 2.792l-3.956.935 3.738.754a4.071 4.071 0 0 1 3.085 2.79l1.033 4.741 1.213-4.154a4.071 4.071 0 0 1 3.172-3.232l4.331-.9-4.54-.972a4.071 4.071 0 0 1 -3.176-3.399z" fill="#f0f5f9"/><path d="m42.53 81.467h-.03a1 1 0 0 1 -.942-.787l-1.038-4.741a3.047 3.047 0 0 0 -2.3-2.022l-3.739-.754a1 1 0 0 1 -.032-1.954l3.956-.936a3.08 3.08 0 0 0 2.235-2.106l1.17-4.521a1 1 0 0 1 .968-.75h.022a1 1 0 0 1 .95.81l.757 3.919c0 .015.006.03.008.045a3.086 3.086 0 0 0 2.4 2.561l4.54.972a1 1 0 0 1 -.006 1.957l-4.331.9a3.062 3.062 0 0 0 -2.392 2.44l-1.236 4.248a1 1 0 0 1 -.96.719zm-3.309-9.348a5.068 5.068 0 0 1 3.231 3.312l.217.992.113-.39a5 5 0 0 1 3.642-3.862 5.1 5.1 0 0 1 -3.793-3.741l-.071.274a5.105 5.105 0 0 1 -3.338 3.415z" fill="#2f3a5a"/></svg>