<svg id="icon" height="512" viewBox="0 0 128 128" width="512" xmlns="http://www.w3.org/2000/svg"><path d="m82.917 9.2s-7.761 11.732 7.723 21.241l-1.84 2.746a21.9 21.9 0 0 1 -17.575-18.64c-2.607-16.447 11.692-5.347 11.692-5.347z" fill="#707583"/><path d="m88.8 34.188a.96.96 0 0 1 -.145-.011c-.155-.023-15.728-2.494-18.418-19.477-.813-5.132-.136-8.262 2.073-9.567 3.864-2.285 10.479 2.7 11.22 3.279a1 1 0 0 1 .222 1.339 12.95 12.95 0 0 0 -1.493 9.122c.9 4.034 3.9 7.638 8.9 10.712a1 1 0 0 1 .312 1.415l-1.84 2.747a1 1 0 0 1 -.831.441zm-14.124-27.652a2.618 2.618 0 0 0 -1.349.323c-1.381.817-1.767 3.421-1.115 7.532a20.972 20.972 0 0 0 16.128 17.686l.9-1.341c-4.972-3.26-7.978-7.111-8.939-11.457a14.812 14.812 0 0 1 1.31-9.792c-1.673-1.16-4.755-2.951-6.935-2.951z" fill="#2f3a5a"/><path d="m80.253 60.044-14.653-29.244h-16.544l-10.207 18.872a25.987 25.987 0 0 0 -3.131 12.366v57.242a7.72 7.72 0 0 0 7.72 7.72h31.85a7.72 7.72 0 0 0 7.72-7.72v-47.592a25.99 25.99 0 0 0 -2.755-11.644z" fill="#d9e2e9"/><path d="m75.288 128h-31.85a8.73 8.73 0 0 1 -8.72-8.72v-57.241a27.079 27.079 0 0 1 3.251-12.839l10.208-18.872a1 1 0 0 1 .88-.524h16.543a1 1 0 0 1 .894.552l14.652 29.244a27.123 27.123 0 0 1 2.861 12.093v47.587a8.73 8.73 0 0 1 -8.719 8.72zm-25.636-96.2-9.923 18.348a25.065 25.065 0 0 0 -3.01 11.89v57.242a6.728 6.728 0 0 0 6.72 6.72h31.85a6.728 6.728 0 0 0 6.72-6.72v-47.592a25.122 25.122 0 0 0 -2.648-11.2l-14.38-28.688z" fill="#2f3a5a"/><path d="m82.974 1h-30.327l-11.894 11.894 9.132 9.133h15.369l10.731-10.514h16.293v-10.513z" fill="#3dbce9"/><path d="m92.282 1.005v3.835h-37.574l-10.997 11.01-2.953-2.953 11.892-11.892z" fill="#81dafc"/><path d="m65.254 23.027h-15.368a1 1 0 0 1 -.707-.293l-9.133-9.134a1 1 0 0 1 0-1.414l11.894-11.893a1 1 0 0 1 .707-.293h39.631a1 1 0 0 1 1 1v10.513a1 1 0 0 1 -1 1h-15.884l-10.44 10.228a1 1 0 0 1 -.7.286zm-14.954-2h14.546l10.439-10.227a1 1 0 0 1 .7-.286h15.293v-8.514h-38.216l-10.895 10.894z" fill="#2f3a5a"/><path d="m45.965 22.027h23.096v11.484h-23.096z" fill="#84879c"/><path d="m69.061 34.51h-23.095a1 1 0 0 1 -1-1v-11.483a1 1 0 0 1 1-1h23.095a1 1 0 0 1 1 1v11.483a1 1 0 0 1 -1 1zm-22.095-2h21.095v-9.483h-21.095z" fill="#2f3a5a"/><path d="m79.067 68.363v49.319a5 5 0 0 1 -5 5h-29.581a5 5 0 0 1 -5-5v-58.7a4.984 4.984 0 0 1 .628-2.419l3.02-6.895a5 5 0 0 1 4.383-2.579h18.936a4.981 4.981 0 0 1 4.089 2.125s8.138 17.143 8.284 17.638a4.76 4.76 0 0 1 .241 1.511z" fill="#f7b521"/><g fill="#707583"><path d="m50.018 31.394a1 1 0 0 1 -1-1v-5.379a1 1 0 1 1 2 0v5.379a1 1 0 0 1 -1 1z"/><path d="m54.972 31.394a1 1 0 0 1 -1-1v-5.379a1 1 0 0 1 2 0v5.379a1 1 0 0 1 -1 1z"/><path d="m59.927 31.394a1 1 0 0 1 -1-1v-5.379a1 1 0 0 1 2 0v5.379a1 1 0 0 1 -1 1z"/><path d="m64.881 31.394a1 1 0 0 1 -1-1v-5.379a1 1 0 0 1 2 0v5.379a1 1 0 0 1 -1 1z"/></g><path d="m35.718 75.199h47.29v32.963h-47.29z" fill="#f0f5f9"/><path d="m84.008 109.161h-49.289v-34.961h49.289zm-47.289-2h45.289v-30.961h-45.289z" fill="#2f3a5a"/><path d="m67.176 88.49h-.111l.078-.078a3.19 3.19 0 0 0 0-4.512 3.19 3.19 0 0 0 -4.512 0l-.078.078v-.111a3.19 3.19 0 0 0 -3.19-3.19 3.19 3.19 0 0 0 -3.19 3.19v.111l-.078-.078a3.19 3.19 0 0 0 -4.511 0 3.19 3.19 0 0 0 0 4.512l.078.078h-.111a3.19 3.19 0 0 0 -3.19 3.19 3.19 3.19 0 0 0 3.19 3.19h.111l-.078.078a3.19 3.19 0 0 0 0 4.512 3.19 3.19 0 0 0 4.511 0l.078-.078v.111a3.19 3.19 0 0 0 3.19 3.19 3.19 3.19 0 0 0 3.19-3.19v-.111l.078.078a3.19 3.19 0 0 0 4.512 0 3.19 3.19 0 0 0 0-4.512l-.078-.078h.111a3.19 3.19 0 0 0 3.19-3.19 3.19 3.19 0 0 0 -3.19-3.19zm-7.813 6.2a3.014 3.014 0 1 1 3.015-3.014 3.014 3.014 0 0 1 -3.015 3.018z" fill="#3dbce9"/></svg>