<svg id="icon" height="512" viewBox="0 0 128 128" width="512" xmlns="http://www.w3.org/2000/svg"><path d="m48.888 15.17h30.224l4.58 12.053-15.767 23.289-23.433-8.39-5.208-10.848z" fill="#c1cdd3"/><path d="m67.925 51.512a1 1 0 0 1 -.337-.059l-23.433-8.39a1 1 0 0 1 -.564-.509l-5.208-10.848a1 1 0 0 1 .042-.945l9.6-16.1a1 1 0 0 1 .859-.488h30.227a1 1 0 0 1 .935.645l4.58 12.053a1 1 0 0 1 -.106.916l-15.767 23.285a1 1 0 0 1 -.828.44zm-22.71-10.193 22.316 7.99 15.041-22.216-4.151-10.923h-28.964l-9.039 15.155z" fill="#2f3a5a"/><path d="m102.786 21.173a6.643 6.643 0 0 0 -3.928-2.329l-11.336-2.114-8.407-1.558c3.674 18.387-13.455 19.588-15.115 19.66-1.673-.072-18.788-1.273-15.113-19.66l-9.607 1.787-10.134 1.886a6.643 6.643 0 0 0 -3.931 2.33l-24.215 29.657 14.87 19.789 12.64-12.2v54.409h70.98v-54.406l12.64 12.2 14.87-19.792z" fill="#d9e2e9"/><path d="m99.49 113.83h-70.977a1 1 0 0 1 -1-1v-52.051l-10.946 10.561a1 1 0 0 1 -1.494-.119l-14.873-19.788a1 1 0 0 1 .029-1.233l24.212-29.658a7.648 7.648 0 0 1 4.522-2.68l19.742-3.673a1 1 0 0 1 1.163 1.179c-1.086 5.435-.384 9.786 2.088 12.935 3.958 5.043 11.267 5.5 12.087 5.531.735-.035 8.044-.49 12-5.536 2.47-3.148 3.172-7.5 2.087-12.93a1 1 0 0 1 1.17-1.18l19.745 3.673a7.65 7.65 0 0 1 4.52 2.68l24.209 29.659a1 1 0 0 1 .025 1.233l-14.87 19.788a1 1 0 0 1 -1.494.119l-10.945-10.561v52.051a1 1 0 0 1 -1 1zm-69.977-2h68.977v-53.406a1 1 0 0 1 1.694-.72l11.826 11.411 13.72-18.258-23.718-29.051a5.647 5.647 0 0 0 -3.336-1.979l-18.328-3.41c.8 5.373-.11 9.779-2.727 13.114-4.417 5.63-12.084 6.235-13.576 6.3-1.578-.063-9.244-.666-13.661-6.294-2.618-3.335-3.534-7.743-2.729-13.119l-18.326 3.41a5.653 5.653 0 0 0 -3.339 1.979l-23.717 29.05 13.72 18.258 11.825-11.415a1 1 0 0 1 1.694.72z" fill="#2f3a5a"/><path d="m121.57 44.18-15.56 20.536 6.121 5.9 14.869-19.787z" fill="#ef5361"/><path d="m112.131 71.617a1 1 0 0 1 -.694-.28l-6.121-5.9a1 1 0 0 1 -.1-1.324l15.56-20.536a1 1 0 0 1 .779-.4.98.98 0 0 1 .792.368l5.43 6.649a1 1 0 0 1 .025 1.233l-14.872 19.79a1 1 0 0 1 -.72.4zm-4.788-7 4.668 4.5 13.719-18.262-4.13-5.055z" fill="#2f3a5a"/><path d="m6.43 44.18 15.56 20.536-6.121 5.9-14.869-19.787z" fill="#ef5361"/><path d="m15.869 71.617h-.08a1 1 0 0 1 -.72-.4l-14.869-19.787a1 1 0 0 1 .026-1.23l5.43-6.649a1 1 0 0 1 1.571.028l15.56 20.536a1 1 0 0 1 -.1 1.324l-6.121 5.9a1 1 0 0 1 -.697.278zm-13.599-20.762 13.719 18.257 4.668-4.5-14.257-18.812z" fill="#2f3a5a"/><path d="m84.7 16.208-5.59-1.036c2.008 10.307-2.145 15.556-6.727 18.12a16.089 16.089 0 0 1 -15.436-.064c-4.542-2.456-9.275-7.508-8.064-18.056l-6.527 1.214s-2.187 24.704 21.644 24.721c24.492.017 20.7-24.899 20.7-24.899z" fill="#ef5361"/><path d="m64.025 42.107h-.025c-7.157 0-12.77-2.176-16.681-6.453-6.913-7.559-6-18.878-5.954-19.356a1 1 0 0 1 .813-.895l6.527-1.214a1 1 0 0 1 1.177 1.1c-.931 8.111 1.608 13.852 7.546 17.063a15.146 15.146 0 0 0 14.472.071c3.931-2.2 8.2-6.945 6.233-17.056a1 1 0 0 1 1.167-1.179l5.59 1.036a1 1 0 0 1 .807.833c.073.479 1.708 11.827-4.859 19.463-3.762 4.371-9.419 6.587-16.813 6.587zm-20.7-24.882c-.07 2.581.129 11.246 5.481 17.089 3.517 3.84 8.63 5.789 15.2 5.793h.024c6.786 0 11.931-1.982 15.293-5.891 5.094-5.923 4.71-14.649 4.477-17.16l-3.452-.64c1.527 10.311-3.154 15.335-7.466 17.748a17.161 17.161 0 0 1 -16.4-.057c-4.442-2.399-9.449-7.407-8.712-17.707z" fill="#2f3a5a"/><path d="m74.967 66.262-1.367-7.09-2.138 8.248a7.366 7.366 0 0 1 -5.362 5.052l-7.157 1.692 6.764 1.365a7.366 7.366 0 0 1 5.581 5.049l1.869 8.578 2.194-7.516a7.366 7.366 0 0 1 5.739-5.847l7.836-1.629-8.214-1.758a7.366 7.366 0 0 1 -5.745-6.144z" fill="#f0f5f9"/><path d="m73.159 90.156h-.035a1 1 0 0 1 -.942-.787l-1.869-8.578a6.34 6.34 0 0 0 -4.8-4.281l-6.764-1.365a1 1 0 0 1 -.032-1.954l7.154-1.691a6.383 6.383 0 0 0 4.629-4.368l2.125-8.211a1.014 1.014 0 0 1 1-.749 1 1 0 0 1 .951.81l1.37 7.09.008.046a6.391 6.391 0 0 0 4.967 5.309l8.214 1.758a1 1 0 0 1 -.006 1.957l-7.829 1.63a6.347 6.347 0 0 0 -4.959 5.054l-2.218 7.61a1 1 0 0 1 -.964.72zm-9.542-16.07 2.289.462a8.362 8.362 0 0 1 6.339 5.734l1.055 4.827 1.095-3.749a8.3 8.3 0 0 1 6.5-6.546l3.2-.665-3.58-.766a8.4 8.4 0 0 1 -6.535-6.953l-.525-2.72-1.025 3.96a8.4 8.4 0 0 1 -6.1 5.774z" fill="#2f3a5a"/><path d="m53.423 54.607-.791-4.1-1.232 4.769a4.255 4.255 0 0 1 -3.1 2.918l-4.134.977 3.907.788a4.255 4.255 0 0 1 3.227 2.917l1.08 4.955 1.268-4.341a4.255 4.255 0 0 1 3.315-3.377l4.526-.941-4.745-1.016a4.255 4.255 0 0 1 -3.321-3.549z" fill="#f0f5f9"/><path d="m52.379 68.832h-.035a1 1 0 0 1 -.942-.787l-1.08-4.955a3.234 3.234 0 0 0 -2.445-2.149l-3.907-.788a1 1 0 0 1 -.032-1.954l4.134-.978a3.262 3.262 0 0 0 2.369-2.232l1.223-4.728a1 1 0 0 1 1.95.061l.791 4.1.008.045a3.267 3.267 0 0 0 2.539 2.714l4.748 1.013a1 1 0 0 1 -.006 1.957l-4.526.941a3.245 3.245 0 0 0 -2.536 2.584l-1.291 4.436a1 1 0 0 1 -.962.72zm-3.609-9.727a5.252 5.252 0 0 1 3.485 3.476l.263 1.205.168-.577a5.192 5.192 0 0 1 3.961-4.052l-.114-.024a5.277 5.277 0 0 1 -4.045-4.074l-.121.467a5.287 5.287 0 0 1 -3.597 3.579z" fill="#2f3a5a"/></svg>