<svg id="icon" height="512" viewBox="0 0 128 128" width="512" xmlns="http://www.w3.org/2000/svg"><path d="m48.447 41.521 4.385-1.727q11.046 7.3 22.078 0l3.557 1.073-4.206 12.2-16.049 1.972z" fill="#d5d6db"/><path d="m58.212 56.039a1 1 0 0 1 -.811-.415l-9.765-13.518a1 1 0 0 1 .444-1.516l4.385-1.727a1 1 0 0 1 .918.1c7.066 4.673 13.927 4.673 20.974 0a1 1 0 0 1 .841-.124l3.557 1.073a1 1 0 0 1 .657 1.283l-4.206 12.205a1 1 0 0 1 -.824.667l-16.048 1.965a1.022 1.022 0 0 1 -.122.007zm-8.2-14.06 8.666 12 14.842-1.819 3.664-10.631-2.116-.638c-7.406 4.739-14.92 4.75-22.347.027z" fill="#2f3a5a"/><path d="m112.072 62.522-12.706 13.958-8.091-6.452v41.937h-54.789v-41.937l-8.086 6.452-12.271-14.48 22.111-21.673a1.381 1.381 0 0 1 1.065-.532h11.557a5.165 5.165 0 0 0 .094.532c1.994 6.773 7.005 12.361 14.616 11.265 5.7-.825 10.732-6.139 10.638-11.8h12.226a1.427 1.427 0 0 1 1.1.532z" fill="#e1e6e9"/><path d="m91.279 105.854v6.108h-54.789v-41.937l-8.09 6.451-12.267-14.48 5.355-5.251 11.536 13.624 5.85-7.066.593 42.551z" fill="#c1cdd3"/><path d="m91.275 112.965h-54.789a1 1 0 0 1 -1-1v-39.865l-6.467 5.157a1 1 0 0 1 -1.387-.135l-12.267-14.476a1 1 0 0 1 .063-1.361l22.072-21.637a2.365 2.365 0 0 1 1.8-.854h11.562a1 1 0 0 1 .985.826l.032.211a1.691 1.691 0 0 0 .04.228c1.7 5.785 6.158 11.6 13.51 10.542 5.292-.766 9.863-5.808 9.781-10.791a1 1 0 0 1 1-1.017h12.226a2.436 2.436 0 0 1 1.862.89l22.475 22.127a1 1 0 0 1 .038 1.386l-12.705 13.958a1 1 0 0 1 -1.363.108l-6.468-5.162v39.86a1 1 0 0 1 -1 1.005zm-53.789-2h52.789v-40.937a1 1 0 0 1 1.624-.782l7.358 5.868 11.428-12.554-21.855-21.521c-.131-.149-.243-.245-.395-.245h-11.258c-.464 5.653-5.488 10.922-11.461 11.787-8.54 1.233-13.679-5.247-15.663-11.787h-10.748a.39.39 0 0 0 -.287.16 1.094 1.094 0 0 1 -.078.086l-21.447 21.023 11.039 13.03 7.332-5.847a1 1 0 0 1 1.624.782z" fill="#2f3a5a"/><path d="m80.124 39.794h-5.214a11.039 11.039 0 1 1 -22.078 0h-5.088a2.75 2.75 0 0 0 -.021.411 16.06 16.06 0 0 0 16.159 15.878 15.842 15.842 0 0 0 16.262-15.878 2.75 2.75 0 0 0 -.02-.411z" fill="#ef5361"/><path d="m63.882 57.083a17.051 17.051 0 0 1 -17.159-16.878 3.678 3.678 0 0 1 .031-.552 1 1 0 0 1 .99-.858h5.088a1 1 0 0 1 1 1 10.039 10.039 0 1 0 20.078 0 1 1 0 0 1 1-1h5.213a1 1 0 0 1 .99.858 3.678 3.678 0 0 1 .031.552 16.9 16.9 0 0 1 -17.262 16.878zm-15.146-16.289a15.227 15.227 0 0 0 30.4 0h-3.267a12.039 12.039 0 0 1 -24 0z" fill="#2f3a5a"/><path d="m37.075 67.978c.139-.379.262-.761.38-1.141l-4.43 3.533-11.537-13.625-5.355 5.255 12.267 14.476 7.581-6.045c.343-.814.781-1.602 1.094-2.453z" fill="#da2a47"/><path d="m109.096 59.566-12.944 14.344 3.219 2.565 12.757-14.013z" fill="#3a556a"/><path d="m99.371 77.475a1 1 0 0 1 -.623-.218l-3.219-2.565a1 1 0 0 1 -.119-1.452l12.944-14.34a1 1 0 0 1 1.433-.053l3.031 2.9a1 1 0 0 1 .048 1.4l-12.756 14.001a1 1 0 0 1 -.739.327zm-1.764-3.685 1.655 1.319 11.469-12.6-1.582-1.509z" fill="#2f3a5a"/><path d="m89.528 40.328s-5.747 12.651 1.751 29.7l8.092 6.449 12.756-14.013z" fill="#ef5361"/><path d="m99.371 77.475a1 1 0 0 1 -.623-.218l-8.092-6.449a1 1 0 0 1 -.292-.379c-7.591-17.258-1.989-29.981-1.747-30.515a1 1 0 0 1 1.61-.3l22.6 22.134a1 1 0 0 1 .04 1.388l-12.757 14.012a1 1 0 0 1 -.739.327zm-7.271-8.075 7.166 5.71 11.473-12.61-20.8-20.374c-1.168 3.653-3.539 14.154 2.161 27.274z" fill="#2f3a5a"/><path d="m38.49 40.085s5.493 12.895-2.006 29.941l-8.092 6.449-12.502-14.256z" fill="#ef5361"/><path d="m20.149 61.613 11.361 12.377-3.121 2.486-12.5-14.261 22.6-22.133s.32.075.884 3.312z" fill="#da2a47"/><g fill="#2f3a5a"><path d="m28.393 77.475a1 1 0 0 1 -.752-.341l-12.5-14.256a1 1 0 0 1 .049-1.378l22.6-22.134a1 1 0 0 1 1.62.322c.231.543 5.576 13.491-2.01 30.736a1 1 0 0 1 -.292.379l-8.092 6.449a1 1 0 0 1 -.623.223zm-11.126-15.2 11.248 12.825 7.152-5.7c5.688-13.107 3.494-23.753 2.387-27.488z"/><path d="m64.436 36.52a194.475 194.475 0 0 1 -63.754-11.032 1 1 0 1 1 .653-1.888c42.154 14.559 84.324 14.559 125.339 0a1 1 0 1 1 .669 1.885 187.1 187.1 0 0 1 -62.907 11.035z"/><path d="m84.475 44.011a1 1 0 0 1 -1-1v-11.394a1 1 0 0 1 2 0v11.394a1 1 0 0 1 -1 1z"/><path d="m42.895 44.011a1 1 0 0 1 -1-1v-11.394a1 1 0 0 1 2 0v11.394a1 1 0 0 1 -1 1z"/></g></svg>