<svg id="icon" height="512" viewBox="0 0 128 128" width="512" xmlns="http://www.w3.org/2000/svg"><rect fill="#e1b378" height="126" rx="5.585" width="48.462" x="39.769" y="1"/><path d="m88.23 6.59v114.82a5.584 5.584 0 0 1 -5.58 5.59h-37.3a5.568 5.568 0 0 1 -5.21-3.6 1.768 1.768 0 0 0 .23.01h37.3a5.582 5.582 0 0 0 5.58-5.58v-114.83a5.5 5.5 0 0 0 -.37-1.99 5.584 5.584 0 0 1 5.35 5.58z" fill="#bd8d5a"/><path d="m82.646 128h-37.292a6.593 6.593 0 0 1 -6.585-6.585v-114.83a6.593 6.593 0 0 1 6.585-6.585h37.292a6.593 6.593 0 0 1 6.584 6.585v114.83a6.593 6.593 0 0 1 -6.584 6.585zm-37.292-126a4.59 4.59 0 0 0 -4.584 4.585v114.83a4.59 4.59 0 0 0 4.584 4.585h37.292a4.59 4.59 0 0 0 4.585-4.585v-114.83a4.59 4.59 0 0 0 -4.585-4.585z" fill="#2f3a5a"/><path d="m67.018 96.59v-80.23a3.078 3.078 0 0 0 -6.036 0v80.23a9.964 9.964 0 1 0 6.036 0z" fill="#d9e2e9"/><path d="m67.018 96.59v-57.071h-6.036v57.071a9.964 9.964 0 1 0 6.036 0z" fill="#da2a47"/><g fill="#2f3a5a"><path d="m64 117.049a10.964 10.964 0 0 1 -4.018-21.165v-79.524a4.06 4.06 0 0 1 8.035 0v79.524a10.964 10.964 0 0 1 -4.017 21.165zm0-102.162c-1.094 0-2.018.674-2.018 1.473v80.962l-.7.222a8.964 8.964 0 1 0 5.43 0l-.7-.222v-80.962c.006-.798-.918-1.473-2.012-1.473z"/><path d="m79.174 20.835h-6.083a1 1 0 0 1 0-2h6.083a1 1 0 0 1 0 2z"/><path d="m76.93 26.993h-3.839a1 1 0 0 1 0-2h3.839a1 1 0 0 1 0 2z"/><path d="m79.174 34.361h-6.083a1 1 0 0 1 0-2h6.083a1 1 0 0 1 0 2z"/><path d="m76.93 40.519h-3.839a1 1 0 0 1 0-2h3.839a1 1 0 0 1 0 2z"/><path d="m79.174 47.887h-6.083a1 1 0 0 1 0-2h6.083a1 1 0 0 1 0 2z"/><path d="m76.93 54.045h-3.839a1 1 0 0 1 0-2h3.839a1 1 0 0 1 0 2z"/><path d="m79.174 61.414h-6.083a1 1 0 0 1 0-2h6.083a1 1 0 0 1 0 2z"/><path d="m76.93 67.572h-3.839a1 1 0 0 1 0-2h3.839a1 1 0 0 1 0 2z"/><path d="m79.174 74.94h-6.083a1 1 0 0 1 0-2h6.083a1 1 0 0 1 0 2z"/><path d="m76.93 81.1h-3.839a1 1 0 0 1 0-2h3.839a1 1 0 0 1 0 2z"/><path d="m79.174 88.466h-6.083a1 1 0 0 1 0-2h6.083a1 1 0 0 1 0 2z"/></g></svg>