<?xml version="1.0"?>
<svg xmlns="http://www.w3.org/2000/svg" id="icon" viewBox="0 0 128 128" width="512" height="512"><path d="M80.162,82.793H108.2a18.807,18.807,0,0,0,18.754-20.081c-.663-9.972-9.406-17.5-19.417-17.5H80.162" fill="#81dafc"/><path d="M108.2,83.792H80.162a1,1,0,0,1,0-2H108.2a17.872,17.872,0,0,0,13.008-5.657,17.622,17.622,0,0,0,4.749-13.356c-.619-9.293-8.709-16.572-18.419-16.572H80.162a1,1,0,0,1,0-2h27.377c10.76,0,19.727,8.1,20.415,18.438A19.6,19.6,0,0,1,122.671,77.5,19.878,19.878,0,0,1,108.2,83.792Z" fill="#2f3a5a"/><path d="M80.8,71.084H6.854A5.761,5.761,0,0,0,2.717,72.8a5.851,5.851,0,0,0,4.137,9.992H80.991A18.807,18.807,0,0,0,99.744,62.712c-.663-9.972-9.406-17.5-19.417-17.5H14.66c-6.128,0-11.9,4.371-12.372,10.479-.722,9.426,4.781,15.4,11.962,15.4" fill="#81dafc"/><path d="M80.991,83.792H6.854a6.85,6.85,0,0,1-4.844-11.7,6.734,6.734,0,0,1,4.844-2.01h.491a12.184,12.184,0,0,1-2.3-1.938C2.238,65.113.9,60.662,1.291,55.611c.49-6.395,6.363-11.4,13.369-11.4H80.327c10.76,0,19.727,8.1,20.415,18.438A19.6,19.6,0,0,1,95.46,77.5,19.876,19.876,0,0,1,80.991,83.792ZM6.854,72.084A4.754,4.754,0,0,0,3.431,73.5a4.851,4.851,0,0,0,3.424,8.291H80.991A17.872,17.872,0,0,0,94,76.136a17.622,17.622,0,0,0,4.748-13.356c-.619-9.293-8.709-16.572-18.419-16.572H14.66c-5.868,0-10.971,4.287-11.375,9.556-.344,4.489.8,8.4,3.229,11.022a10.4,10.4,0,0,0,7.736,3.3H80.8a1,1,0,1,1,0,2Z" fill="#2f3a5a"/><path d="M80.8,72.084a1,1,0,0,1,0-2,6.083,6.083,0,0,0,4.913-9.92,6.066,6.066,0,0,0-4.717-2.248H14.25a1,1,0,0,1,0-2h66.74A8.091,8.091,0,0,1,88.9,65.685,8.17,8.17,0,0,1,80.8,72.084Z" fill="#2f3a5a"/><path d="M80.162,45.207H108.2a18.807,18.807,0,0,0,18.754-20.081c-.663-9.972-9.406-17.5-19.417-17.5H80.162" fill="#ef5361"/><path d="M108.2,46.208H80.162a1,1,0,0,1,0-2H108.2a17.872,17.872,0,0,0,13.008-5.657,17.622,17.622,0,0,0,4.749-13.356c-.619-9.293-8.709-16.572-18.419-16.572H80.162a1,1,0,0,1,0-2h27.377c10.76,0,19.727,8.1,20.415,18.438a19.6,19.6,0,0,1-5.282,14.856A19.878,19.878,0,0,1,108.2,46.208Z" fill="#2f3a5a"/><path d="M80.8,33.5H6.854a5.761,5.761,0,0,0-4.137,1.717,5.851,5.851,0,0,0,4.137,9.992H80.991A18.807,18.807,0,0,0,99.744,25.127c-.663-9.972-9.406-17.5-19.417-17.5H14.66c-6.128,0-11.9,4.371-12.372,10.479C1.566,27.527,7.069,33.5,14.25,33.5" fill="#ef5361"/><path d="M80.991,46.208H6.854a6.851,6.851,0,0,1-4.844-11.7A6.734,6.734,0,0,1,6.854,32.5h.491a12.184,12.184,0,0,1-2.3-1.938C2.238,27.528.9,23.076,1.291,18.025c.49-6.395,6.363-11.4,13.369-11.4H80.327c10.76,0,19.727,8.1,20.415,18.438A19.6,19.6,0,0,1,95.46,39.916,19.876,19.876,0,0,1,80.991,46.208ZM6.854,34.5a4.754,4.754,0,0,0-3.424,1.418,4.851,4.851,0,0,0,3.424,8.291H80.991A17.872,17.872,0,0,0,94,38.551a17.622,17.622,0,0,0,4.748-13.356C98.128,15.9,90.037,8.622,80.327,8.622H14.66c-5.868,0-10.971,4.287-11.375,9.556-.344,4.489.8,8.4,3.229,11.023a10.4,10.4,0,0,0,7.736,3.3H80.8a1,1,0,0,1,0,2Z" fill="#2f3a5a"/><path d="M80.8,34.5a1,1,0,0,1,0-2,6.082,6.082,0,0,0,4.913-9.92,6.066,6.066,0,0,0-4.717-2.248H14.25a1,1,0,0,1,0-2h66.74A8.091,8.091,0,0,1,88.9,28.1,8.169,8.169,0,0,1,80.8,34.5Z" fill="#2f3a5a"/><path d="M80.162,120.378H108.2A18.807,18.807,0,0,0,126.956,100.3c-.663-9.972-9.406-17.5-19.417-17.5H80.162" fill="#ffc943"/><path d="M108.2,121.378H80.162a1,1,0,0,1,0-2H108.2a17.872,17.872,0,0,0,13.008-5.657,17.622,17.622,0,0,0,4.749-13.356c-.619-9.293-8.709-16.572-18.419-16.572H80.162a1,1,0,0,1,0-2h27.377c10.76,0,19.727,8.1,20.415,18.438a19.6,19.6,0,0,1-5.282,14.856A19.878,19.878,0,0,1,108.2,121.378Z" fill="#2f3a5a"/><path d="M80.8,108.669H6.854a5.761,5.761,0,0,0-4.137,1.717,5.851,5.851,0,0,0,4.137,9.992H80.991A18.807,18.807,0,0,0,99.744,100.3c-.663-9.972-9.406-17.5-19.417-17.5H14.66c-6.128,0-11.9,4.371-12.372,10.479-.722,9.426,4.781,15.4,11.962,15.4" fill="#ffc943"/><path d="M80.991,121.378H6.854a6.851,6.851,0,0,1-4.844-11.7,6.734,6.734,0,0,1,4.844-2.01h.491a12.184,12.184,0,0,1-2.3-1.938C2.238,102.7.9,98.247,1.291,93.2c.49-6.395,6.363-11.4,13.369-11.4H80.327c10.76,0,19.727,8.1,20.415,18.438a19.6,19.6,0,0,1-5.282,14.855A19.876,19.876,0,0,1,80.991,121.378ZM6.854,109.669a4.754,4.754,0,0,0-3.424,1.418,4.851,4.851,0,0,0,3.424,8.291H80.991A17.872,17.872,0,0,0,94,113.721a17.622,17.622,0,0,0,4.748-13.356c-.619-9.293-8.709-16.572-18.419-16.572H14.66c-5.868,0-10.971,4.287-11.375,9.556-.344,4.489.8,8.4,3.229,11.023a10.4,10.4,0,0,0,7.736,3.3H80.8a1,1,0,0,1,0,2Z" fill="#2f3a5a"/><path d="M80.8,109.669a1,1,0,0,1,0-2,6.082,6.082,0,0,0,4.913-9.92A6.066,6.066,0,0,0,80.991,95.5H14.25a1,1,0,1,1,0-2h66.74A8.091,8.091,0,0,1,88.9,103.27,8.169,8.169,0,0,1,80.8,109.669Z" fill="#2f3a5a"/><path d="M99.508,56.1l-1.369-7.09L96,57.256a7.366,7.366,0,0,1-5.361,5.052L83.485,64l6.764,1.365a7.366,7.366,0,0,1,5.581,5.049L97.7,78.992l2.194-7.516a7.366,7.366,0,0,1,5.739-5.847L113.469,64l-8.214-1.758A7.366,7.366,0,0,1,99.508,56.1Z" fill="#f0f5f9"/><path d="M97.7,79.992h-.035a1,1,0,0,1-.942-.787l-1.87-8.578a6.34,6.34,0,0,0-4.8-4.281L83.287,64.98a1,1,0,0,1-.032-1.954l7.157-1.692a6.384,6.384,0,0,0,4.633-4.367l2.125-8.211a1,1,0,0,1,1.95.061l1.37,7.09.008.046a6.391,6.391,0,0,0,4.967,5.309l8.214,1.758a1,1,0,0,1-.006,1.957l-7.836,1.629a6.347,6.347,0,0,0-4.959,5.054l-2.217,7.61A1,1,0,0,1,97.7,79.992ZM88.158,63.923l2.289.462a8.362,8.362,0,0,1,6.339,5.734l1.054,4.826L98.934,71.2a8.3,8.3,0,0,1,6.5-6.546l3.2-.665-3.58-.766a8.4,8.4,0,0,1-6.524-6.954L98,53.546l-1.025,3.96a8.4,8.4,0,0,1-6.1,5.775Z" fill="#2f3a5a"/><path d="M114.016,93.854l-.727-3.763-1.134,4.378a3.91,3.91,0,0,1-2.845,2.682l-3.8.9,3.59.725a3.91,3.91,0,0,1,2.963,2.68l.992,4.553,1.165-3.989a3.91,3.91,0,0,1,3.046-3.1l4.159-.865-4.36-.933A3.91,3.91,0,0,1,114.016,93.854Z" fill="#f0f5f9"/><path d="M113.057,107.006h-.035a1,1,0,0,1-.942-.787l-.992-4.553a2.891,2.891,0,0,0-2.184-1.913l-3.589-.724a1,1,0,0,1-.032-1.954l3.8-.9a2.916,2.916,0,0,0,2.117-2l1.124-4.341a1.024,1.024,0,0,1,1-.749,1,1,0,0,1,.951.81L115,93.665l.008.045a2.921,2.921,0,0,0,2.271,2.427l4.36.933a1,1,0,0,1-.006,1.957l-4.16.865a2.9,2.9,0,0,0-2.267,2.31l-1.187,4.083A1,1,0,0,1,113.057,107.006ZM110,97.99a4.908,4.908,0,0,1,3.018,3.168l.176.8.065-.225a4.836,4.836,0,0,1,3.38-3.7,4.936,4.936,0,0,1-3.487-3.439l-.03.117A4.944,4.944,0,0,1,110,97.99Z" fill="#2f3a5a"/></svg>
