<svg id="icon" height="512" viewBox="0 0 128 128" width="512" xmlns="http://www.w3.org/2000/svg"><path d="m102.91 48.968a4.881 4.881 0 0 0 -4.881 4.881v47.451h9.763v-47.45a4.881 4.881 0 0 0 -4.882-4.882z" fill="#c1cdd3"/><g fill="#2f3a5a"><path d="m107.791 102.3h-9.763a1 1 0 0 1 -1-1v-47.45a5.881 5.881 0 1 1 11.763 0v47.45a1 1 0 0 1 -1 1zm-8.763-2h7.763v-46.45a3.881 3.881 0 1 0 -7.763 0z"/><path d="m116.709 55.322h-105.418a3.018 3.018 0 0 1 -1.391-5.694l55.18-28.733a1 1 0 0 1 .944.011l52.146 28.756a3.018 3.018 0 0 1 -1.458 5.66zm-51.185-32.406-54.704 28.484a1.017 1.017 0 0 0 .471 1.92h105.418a1.018 1.018 0 0 0 .492-1.909z"/><path d="m65.476 22.781a1 1 0 0 1 -1-1v-7.345a1 1 0 0 1 1-1 5.718 5.718 0 1 0 -5.611-6.82 1 1 0 1 1 -1.965-.384 7.718 7.718 0 1 1 8.574 9.139v6.41a1 1 0 0 1 -.998 1z"/></g><path d="m102.916 48.963a4.882 4.882 0 0 0 -4.883 4.883v73.154h-78.891v-72.471a5.567 5.567 0 0 1 5.566-5.566z" fill="#d9e2e9"/><path d="m102.92 48.96a4.895 4.895 0 0 0 -4.8 3.94h-65.44a5.572 5.572 0 0 0 -5.57 5.57v68.53h-7.97v-72.47a5.572 5.572 0 0 1 5.57-5.57z" fill="#c1cdd3"/><path d="m102.916 48.963a4.882 4.882 0 0 0 -4.883 4.883v73.154h-78.891v-72.471a5.567 5.567 0 0 1 5.566-5.566z" fill="none"/><path d="m19.142 108.658h78.887v7.879h-78.887z" fill="#ffc943"/><path d="m98.028 117.537h-78.886a1 1 0 0 1 -1-1v-7.879a1 1 0 0 1 1-1h78.886a1 1 0 0 1 1 1v7.879a1 1 0 0 1 -1 1zm-77.887-2h76.887v-5.879h-76.886z" fill="#2f3a5a"/><path d="m98.032 84.042h9.759v7.879h-9.759z" fill="#ffc943"/><path d="m107.791 92.921h-9.759a1 1 0 0 1 -1-1v-7.879a1 1 0 0 1 1-1h9.759a1 1 0 0 1 1 1v7.879a1 1 0 0 1 -1 1zm-8.759-2h7.759v-5.879h-7.759z" fill="#2f3a5a"/><path d="m98.032 128h-78.89a1 1 0 0 1 -1-1v-72.471a6.573 6.573 0 0 1 6.566-6.566h78.207a1 1 0 0 1 0 2 3.887 3.887 0 0 0 -3.883 3.883v73.154a1 1 0 0 1 -1 1zm-77.891-2h76.891v-72.154a5.862 5.862 0 0 1 1.468-3.883h-73.792a4.572 4.572 0 0 0 -4.566 4.566z" fill="#2f3a5a"/></svg>