<?xml version="1.0"?>
<svg xmlns="http://www.w3.org/2000/svg" id="icon" viewBox="0 0 128 128" width="512" height="512"><path d="M75.222,37.107H93.633c7.086,0,12.8,6.812,12.314,14.977-.436,7.437-6.176,13.056-12.749,13.056H75.222" fill="#c1cdd3"/><path d="M93.2,66.139H75.222a1,1,0,0,1,0-2H93.2c6.192,0,11.354-5.321,11.752-12.114a14.022,14.022,0,0,0-3.619-10.454,10.558,10.558,0,0,0-7.7-3.465H75.222a1,1,0,0,1,0-2H93.633a12.534,12.534,0,0,1,9.152,4.093,16.023,16.023,0,0,1,4.16,11.943C106.486,59.991,100.447,66.139,93.2,66.139Z" fill="#2f3a5a"/><path d="M75.638,45.84H27.088a3.572,3.572,0,0,1-2.716-1.281,4.67,4.67,0,0,1-1.128-3.086,4.125,4.125,0,0,1,3.844-4.366H75.766c7.086,0,12.8,6.812,12.314,14.977C87.644,59.521,81.9,65.139,75.33,65.139H32.213a8.323,8.323,0,0,1-8.124-7.816c-.474-7.03,3.139-11.484,7.854-11.484" fill="#f0f5f9"/><path d="M75.33,66.139H32.213a9.282,9.282,0,0,1-9.122-8.749c-.276-4.1.762-7.638,2.923-9.95a8.577,8.577,0,0,1,.645-.622,4.575,4.575,0,0,1-3.044-1.606,5.652,5.652,0,0,1-1.371-3.74,5.131,5.131,0,0,1,4.845-5.367H75.766A12.534,12.534,0,0,1,84.918,40.2a16.023,16.023,0,0,1,4.16,11.943C88.618,59.991,82.579,66.139,75.33,66.139Zm-43.387-19.3a5.991,5.991,0,0,0-4.469,1.967c-1.779,1.9-2.627,4.9-2.388,8.449a7.367,7.367,0,0,0,7.126,6.883H75.33c6.191,0,11.353-5.321,11.752-12.114a14.022,14.022,0,0,0-3.619-10.454,10.558,10.558,0,0,0-7.7-3.465H27.088a3.143,3.143,0,0,0-2.845,3.367,3.656,3.656,0,0,0,.879,2.425,2.581,2.581,0,0,0,1.966.941h48.55a1,1,0,0,1,0,2Z" fill="#2f3a5a"/><path d="M75.766,57.406H31.943a1,1,0,0,1,0-2H75.766a3.385,3.385,0,0,0,2.606-1.292A4.756,4.756,0,0,0,79.33,50.2a3.88,3.88,0,0,0-3.692-3.356,1,1,0,0,1,0-2,5.872,5.872,0,0,1,5.661,5A6.742,6.742,0,0,1,79.907,55.4,5.422,5.422,0,0,1,75.766,57.406Z" fill="#2f3a5a"/><path d="M75.222,65.139H93.633c7.086,0,12.8,6.812,12.314,14.977-.436,7.437-6.176,13.056-12.749,13.056H75.222" fill="#ef5361"/><path d="M75.638,73.872H27.088a3.572,3.572,0,0,1-2.716-1.281,4.67,4.67,0,0,1-1.128-3.086,4.125,4.125,0,0,1,3.844-4.366H75.766c7.086,0,12.8,6.812,12.314,14.977C87.644,87.554,81.9,93.172,75.33,93.172H32.213a8.323,8.323,0,0,1-8.124-7.816c-.474-7.03,3.139-11.484,7.854-11.484" fill="#ef5361"/><path d="M75.222,89.371H93.633c7.086,0,12.8,6.812,12.314,14.977-.436,7.437-6.176,13.056-12.749,13.056H75.222" fill="#d9e2e9"/><path d="M93.2,118.4H75.222a1,1,0,0,1,0-2H93.2c6.192,0,11.354-5.321,11.752-12.114a14.022,14.022,0,0,0-3.619-10.454,10.558,10.558,0,0,0-7.7-3.465H75.222a1,1,0,0,1,0-2H93.633a12.534,12.534,0,0,1,9.152,4.093,16.023,16.023,0,0,1,4.16,11.943C106.486,112.255,100.447,118.4,93.2,118.4Z" fill="#2f3a5a"/><path d="M75.638,98.1H27.088a3.572,3.572,0,0,1-2.716-1.281,4.67,4.67,0,0,1-1.128-3.086,4.125,4.125,0,0,1,3.844-4.366H75.766c7.086,0,12.8,6.812,12.314,14.977C87.644,111.785,81.9,117.4,75.33,117.4H32.213a8.323,8.323,0,0,1-8.124-7.816c-.474-7.03,3.139-11.484,7.854-11.484" fill="#d9e2e9"/><path d="M75.222,9.074H93.633c7.086,0,12.8,6.812,12.314,14.977-.436,7.437-6.176,13.056-12.749,13.056H75.222" fill="#ffc943"/><path d="M93.2,38.106H75.222a1,1,0,0,1,0-2H93.2c6.192,0,11.354-5.321,11.752-12.114a14.021,14.021,0,0,0-3.619-10.453,10.558,10.558,0,0,0-7.7-3.465H75.222a1,1,0,0,1,0-2H93.633a12.538,12.538,0,0,1,9.153,4.093,16.024,16.024,0,0,1,4.159,11.943C106.486,31.958,100.447,38.106,93.2,38.106Z" fill="#2f3a5a"/><path d="M75.638,17.807H27.088a3.572,3.572,0,0,1-2.716-1.281,4.67,4.67,0,0,1-1.128-3.086,4.125,4.125,0,0,1,3.844-4.366H75.766c7.086,0,12.8,6.812,12.314,14.977C87.644,31.488,81.9,37.107,75.33,37.107H32.213a8.323,8.323,0,0,1-8.124-7.816c-.474-7.03,3.139-11.484,7.854-11.484" fill="#ffc943"/><path d="M75.33,38.106H32.213a9.282,9.282,0,0,1-9.122-8.749c-.276-4.1.762-7.638,2.922-9.949a8.589,8.589,0,0,1,.646-.622,4.573,4.573,0,0,1-3.043-1.606,5.649,5.649,0,0,1-1.372-3.74,5.131,5.131,0,0,1,4.845-5.366H75.766a12.538,12.538,0,0,1,9.153,4.093A16.024,16.024,0,0,1,89.078,24.11C88.618,31.958,82.579,38.106,75.33,38.106Zm-43.387-19.3a6,6,0,0,0-4.47,1.967c-1.778,1.9-2.626,4.9-2.387,8.449a7.367,7.367,0,0,0,7.126,6.883H75.33c6.191,0,11.353-5.321,11.752-12.114a14.021,14.021,0,0,0-3.619-10.453,10.558,10.558,0,0,0-7.7-3.465H27.088a3.142,3.142,0,0,0-2.845,3.366,3.657,3.657,0,0,0,.879,2.425,2.584,2.584,0,0,0,1.966.941h48.55a1,1,0,0,1,0,2Z" fill="#2f3a5a"/><path d="M75.766,29.374H31.943a1,1,0,0,1,0-2H75.766a3.385,3.385,0,0,0,2.606-1.292,4.755,4.755,0,0,0,.958-3.919,3.88,3.88,0,0,0-3.692-3.356,1,1,0,0,1,0-2,5.872,5.872,0,0,1,5.661,5,6.742,6.742,0,0,1-1.392,5.553A5.422,5.422,0,0,1,75.766,29.374Z" fill="#2f3a5a"/><path d="M9.223,56.406l10.924,55.953a8.115,8.115,0,0,0,7.971,6.567H99.882a8.115,8.115,0,0,0,7.971-6.567l10.924-55.953Zm10.2,10.372h9.6l1.129,9.291H20.868Zm2.185,14.165h9.135l1.02,8.427H22.909ZM23.593,93.8h8.715l.924,7.659H24.781Zm2.893,18.7-1.081-7.011h8.319l.84,7.011Zm8.847-45.725h9.616l.612,9.291h-9.3Zm1.4,14.165h9.135l.564,8.427H37.578ZM38.022,93.8h8.7l.5,7.659H38.779Zm1.849,18.7-.7-7.011h8.319l.468,7.011ZM51.239,66.778h9.616l.1,9.291h-9.3Zm.624,14.165h9.148l.084,8.427H52.236ZM52.44,93.8h8.7l.084,7.659H52.776Zm.816,18.7-.3-7.011h8.319l.072,7.011Zm21.488,0H66.653l.072-7.011h8.319Zm.48-11.044H66.773l.084-7.659h8.7Zm.54-12.089H66.905l.1-8.427h9.135Zm.588-13.3h-9.3l.1-9.291h9.616ZM88.129,112.5H80.038l.468-7.011h8.319Zm1.093-11.044H80.77l.5-7.659H89.99Zm1.2-12.089H81.563l.564-8.427h9.136Zm1.32-13.3h-9.3l.624-9.291h9.6Zm9.772,36.434H93.435l.84-7.011h8.319Zm1.7-11.044H94.768l.924-7.659h8.715Zm1.873-12.089H96.232l1.021-8.427h9.135Zm2.053-13.3h-9.3l1.128-9.291h9.6Z" fill="#078dd8" stroke="#2f3a5a" stroke-linecap="round" stroke-linejoin="round" stroke-width="2"/><path d="M122.191,50H5.81a4.809,4.809,0,0,0,0,9.618H122.191a4.809,4.809,0,1,0,0-9.618Z" fill="#078dd8"/><path d="M126.949,54.131a.884.884,0,0,0-.165-.01H10.4a4.8,4.8,0,0,0-4.8,4.8,4.9,4.9,0,0,0,.051.679A4.8,4.8,0,0,1,5.814,50H122.187A4.8,4.8,0,0,1,126.949,54.131Z" fill="#0aa4e8"/><path d="M122.19,60.616H5.811A5.809,5.809,0,1,1,5.811,49H122.19a5.809,5.809,0,1,1,0,11.619ZM5.811,51a3.809,3.809,0,1,0,0,7.619H122.19a3.809,3.809,0,1,0,0-7.619Z" fill="#2f3a5a"/></svg>
