<?xml version="1.0"?>
<svg xmlns="http://www.w3.org/2000/svg" id="icon" viewBox="0 0 128 128" width="512" height="512"><path d="M70.408,2.017h0A3.987,3.987,0,0,0,70.1,9.5l7.076,2.933-5.361.468-4.977.411L48.246,14.843a3.039,3.039,0,0,0-2.689,2.5,2.8,2.8,0,0,0,3.013,3.08l18.724-1.545.039.467L44.016,21.273a3.038,3.038,0,0,0-2.689,2.505,2.8,2.8,0,0,0,3.013,3.08l23.453-1.935.039.467-19.448,1.6a3.038,3.038,0,0,0-2.689,2.5,2.8,2.8,0,0,0,3.013,3.08l19.584-1.616.038.467L54.9,32.539a3.039,3.039,0,0,0-2.689,2.5,2.8,2.8,0,0,0,3.013,3.08L68.789,37l11.98-.989,15.673-2.211L111,31.226,108.842,10.2l-17.356.1L73.244,2.173A3.987,3.987,0,0,0,70.408,2.017Z" fill="#e8c79c"/><path d="M54.99,39.134a3.8,3.8,0,0,1-3.776-4.187,3.491,3.491,0,0,1,.606-1.621l-3.032.25A3.8,3.8,0,0,1,44.7,29.4a3.494,3.494,0,0,1,.606-1.621l-.883.073a3.8,3.8,0,0,1-4.09-4.172,4.018,4.018,0,0,1,3.6-3.406l1.555-.128a3.815,3.815,0,0,1-.927-2.9,4.017,4.017,0,0,1,3.6-3.405l24.85-2.057-3.3-1.368A4.941,4.941,0,0,1,66.64,5.607,4.942,4.942,0,0,1,70.1,1.064h0a4.98,4.98,0,0,1,3.548.194L91.7,9.3l18.048-.1,2.348,22.857L96.616,34.79,80.909,37.006,55.3,39.121Q55.147,39.134,54.99,39.134ZM69.2,29.885l.2,2.46-14.427,1.19a2.056,2.056,0,0,0-1.776,1.6,1.8,1.8,0,0,0,1.935,1.988L80.688,35.02l15.615-2.2,13.61-2.411L107.94,11.2l-16.665.1L72.838,3.086a2.985,2.985,0,0,0-2.125-.116h0a2.929,2.929,0,0,0-2.075,2.72,2.929,2.929,0,0,0,1.841,2.884l10.851,4.5L66.916,14.306,48.328,15.839a2.056,2.056,0,0,0-1.776,1.6,1.8,1.8,0,0,0,1.935,1.987L68.208,17.8l.2,2.46L44.1,22.27a2.056,2.056,0,0,0-1.776,1.6,1.8,1.8,0,0,0,1.935,1.987l24.449-2.017.2,2.46L48.465,27.991a2.055,2.055,0,0,0-1.775,1.6,1.8,1.8,0,0,0,1.935,1.988Z" fill="#2f3a5a"/><rect x="98.617" y="7.535" width="12.605" height="28.425" transform="translate(-0.622 3.252) rotate(-1.771)" fill="#d5d6db"/><path d="M99.059,37.148a1,1,0,0,1-1-.969L97.182,7.768a1,1,0,0,1,.969-1.03l12.6-.39a.986.986,0,0,1,.716.271,1,1,0,0,1,.314.7l.878,28.412a1,1,0,0,1-.969,1.03l-12.6.39Zm.152-28.443.816,26.413,10.6-.328-.817-26.413Z" fill="#2f3a5a"/><path d="M57.879,20.687C56.5,19.536,54.617,18.3,53.062,19.2a4.472,4.472,0,0,0-1.657,2.682A200.664,200.664,0,0,1,25.952,73.6l9.432,8.742L63.2,94.934c2.987,1.352,6.188,2.737,9.429,2.239,3.346-.514,6.052-2.936,8.368-5.4a74.5,74.5,0,0,0,19.8-45.409A161.476,161.476,0,0,1,57.879,20.687Z" fill="#d9e2e9"/><path d="M71.243,98.277c-3.088,0-6.029-1.332-8.46-2.432L34.823,83.186,24.639,73.747l.489-.712A199.2,199.2,0,0,0,50.454,21.574a5.393,5.393,0,0,1,2.107-3.239c2.4-1.387,5.077.849,5.958,1.583h0a159.928,159.928,0,0,0,42.65,25.515l.674.271-.05.725a75.02,75.02,0,0,1-20.07,46.024c-2.35,2.5-5.25,5.141-8.946,5.708A10.071,10.071,0,0,1,71.243,98.277ZM35.944,81.5,63.608,94.023c2.588,1.172,5.81,2.629,8.865,2.162,3.095-.475,5.675-2.845,7.791-5.1a73.016,73.016,0,0,0,19.48-44.072,161.927,161.927,0,0,1-42.5-25.559h0c-1.677-1.4-2.877-1.849-3.676-1.389a3.683,3.683,0,0,0-1.207,2.125A201.2,201.2,0,0,1,27.264,73.453Z" fill="#2f3a5a"/><path d="M62.42,32.564C33.7,27.91,48.7,37.034,48.7,42.462s8.287,9.759,13.716,9.759a9.829,9.829,0,0,0,9.828-9.829C72.249,36.964,67.779,33.432,62.42,32.564Z" fill="#ebf0f3"/><path d="M62.42,53.221c-5.789,0-14.716-4.62-14.716-10.759,0-1.156-1.022-2.8-1.924-4.25-1.338-2.152-2.722-4.378-1.562-6.12,1.09-1.637,4.07-2.83,18.362-.516h0c6.381,1.034,10.668,5.38,10.668,10.815A10.841,10.841,0,0,1,62.42,53.221ZM50.175,32.28c-3.021,0-4.006.493-4.292.921-.446.67.686,2.491,1.6,3.955,1.094,1.759,2.225,3.579,2.225,5.306,0,4.75,7.811,8.759,12.716,8.759a8.839,8.839,0,0,0,8.829-8.829c0-5.451-4.842-8.169-8.989-8.841A80.173,80.173,0,0,0,50.175,32.28Z" fill="#da2a47"/><path d="M70,49.25a4.636,4.636,0,0,0-3.311,1.388,4.654,4.654,0,1,0,0,6.531A4.652,4.652,0,1,0,70,49.25Z" fill="#ebf0f3"/><path d="M70,59.557a5.6,5.6,0,0,1-3.311-1.073,5.6,5.6,0,0,1-3.311,1.073,5.654,5.654,0,0,1,0-11.307,5.6,5.6,0,0,1,3.311,1.072A5.6,5.6,0,0,1,70,48.25a5.654,5.654,0,1,1,0,11.307Zm-3.311-3.812.712.722a3.653,3.653,0,1,0,0-5.127l-.712.722-.712-.722a3.654,3.654,0,1,0,0,5.127Z" fill="#2f3a5a"/><path d="M53.167,47.319a4.641,4.641,0,0,0-4.472-3.435h0a4.636,4.636,0,0,0-1.934-3.761,4.594,4.594,0,0,0,.06-3.759,4.616,4.616,0,0,0,3.092-1.5,4.611,4.611,0,0,0,6.815.066,4.646,4.646,0,1,0,1.038-4.573,4.616,4.616,0,0,0-7.853-1.723,4.645,4.645,0,0,0-7.716,4.94,4.628,4.628,0,0,0-2.377,8.38,4.633,4.633,0,0,0,4.221,6.588,4.638,4.638,0,0,0,3.334,4.441,4.642,4.642,0,1,0,5.791-5.66Z" fill="#ebf0f3"/><path d="M51.847,57.413a5.656,5.656,0,0,1-5.269-3.654,5.6,5.6,0,0,1-3.462-4.3,5.663,5.663,0,0,1-4.729-5.578,5.493,5.493,0,0,1,.247-1.626,5.621,5.621,0,0,1,2.288-9.465,5.639,5.639,0,0,1,8.991-5.521,5.6,5.6,0,0,1,8.216,1.487,5.566,5.566,0,0,1,3.017-.879,5.654,5.654,0,1,1-4.781,8.639,5.74,5.74,0,0,1-6.453-.3,5.588,5.588,0,0,1-1.815.926,5.617,5.617,0,0,1,.1,1.047,5.508,5.508,0,0,1-.246,1.626,5.678,5.678,0,0,1,1.669,3.147,5.668,5.668,0,0,1,4.346,3.578A5.6,5.6,0,0,1,57.5,51.76,5.66,5.66,0,0,1,51.847,57.413ZM46.478,28.091a3.653,3.653,0,0,0-3.361,5.084,1,1,0,0,1-.845,1.39,3.658,3.658,0,0,0-3.384,3.622,3.614,3.614,0,0,0,1.52,2.951,1,1,0,0,1,.322,1.228,3.614,3.614,0,0,0-.342,1.518,3.658,3.658,0,0,0,3.654,3.654,1,1,0,0,1,1,1A3.619,3.619,0,0,0,47.66,52.02a1,1,0,0,1,.68.7,3.642,3.642,0,1,0,4.541-4.438,1,1,0,0,1-.68-.7,3.652,3.652,0,0,0-3.507-2.7,1,1,0,0,1-1-1,3.614,3.614,0,0,0-1.52-2.951,1,1,0,0,1-.322-1.228,3.6,3.6,0,0,0,.049-2.949,1,1,0,0,1,.845-1.39,3.622,3.622,0,0,0,2.425-1.179,1.032,1.032,0,0,1,1.481,0A3.61,3.61,0,0,0,56,34.241a1,1,0,0,1,1.682.385,3.646,3.646,0,1,0,.813-3.587,1,1,0,0,1-1.682-.384A3.617,3.617,0,0,0,50.654,29.3a1.032,1.032,0,0,1-1.481,0A3.606,3.606,0,0,0,46.478,28.091Z" fill="#2f3a5a"/><path d="M71.779,19.193h0a3.987,3.987,0,0,0-.247,7.483l7.1,2.871-5.357.515-4.973.454-18.574,1.7a3.039,3.039,0,0,0-2.667,2.528,2.8,2.8,0,0,0,3.04,3.054l18.71-1.709.043.466-23.3,2.128a3.038,3.038,0,0,0-2.667,2.528,2.8,2.8,0,0,0,3.04,3.054l23.435-2.14.043.466L49.974,44.362a3.038,3.038,0,0,0-2.667,2.528,2.8,2.8,0,0,0,3.04,3.054l19.569-1.787.043.466-13.42,1.226a3.039,3.039,0,0,0-2.667,2.528,2.8,2.8,0,0,0,3.04,3.054l13.556-1.238L82.438,53.1,98.09,50.752l14.537-2.706-2.344-21.01-17.355.252L74.617,19.323A3.987,3.987,0,0,0,71.779,19.193Z" fill="#e8c79c"/><path d="M56.653,56.442a3.8,3.8,0,0,1-3.778-4.153,3.488,3.488,0,0,1,.592-1.626l-3.03.277A3.8,3.8,0,0,1,46.311,46.8a3.492,3.492,0,0,1,.592-1.626l-.882.081a3.8,3.8,0,0,1-4.126-4.137,4.016,4.016,0,0,1,3.573-3.437l1.553-.142a3.816,3.816,0,0,1-.953-2.889,4.016,4.016,0,0,1,3.573-3.437l24.831-2.274L71.158,27.6a4.987,4.987,0,0,1,.309-9.36h0a4.978,4.978,0,0,1,3.55.164l18.113,7.878,17.139-.249a.983.983,0,0,1,1.008.889l2.344,21.01a1,1,0,0,1-.811,1.094L98.273,51.734,82.586,54.088,57,56.427Q56.827,56.442,56.653,56.442Zm13.262-9.286a1,1,0,0,1,1,.909l.042.466a1,1,0,0,1-.905,1.087L56.629,50.845a2.056,2.056,0,0,0-1.762,1.62,1.8,1.8,0,0,0,1.952,1.971L82.347,52.1l15.595-2.341,13.589-2.53L109.39,28.049l-16.447.239a1.041,1.041,0,0,1-.414-.083L74.218,20.24a2.987,2.987,0,0,0-2.126-.1,2.987,2.987,0,0,0-.185,5.606l7.1,2.871a1,1,0,0,1-.279,1.923l-10.334.97-18.574,1.7a2.056,2.056,0,0,0-1.762,1.62A1.8,1.8,0,0,0,50.012,36.8l18.71-1.709a1.025,1.025,0,0,1,.731.228,1,1,0,0,1,.356.678l.042.466a1,1,0,0,1-.905,1.087l-23.3,2.128a2.056,2.056,0,0,0-1.762,1.62,1.8,1.8,0,0,0,1.953,1.97l23.435-2.141a1.023,1.023,0,0,1,.731.228,1,1,0,0,1,.356.678l.042.466a1,1,0,0,1-.905,1.087L50.064,45.358a2.056,2.056,0,0,0-1.762,1.62,1.794,1.794,0,0,0,.52,1.453,1.773,1.773,0,0,0,1.433.518l19.569-1.788C69.855,47.158,69.885,47.157,69.916,47.157Z" fill="#2f3a5a"/><path d="M75.346,66.928a3.976,3.976,0,0,0-3.328,2c-.733-3.365-3.293-5.863-6.365-5.863-2.9,0-5.332,2.226-6.218,5.3a4.67,4.67,0,0,0-8.984.021,5.558,5.558,0,0,0-2.24-2.736,6.812,6.812,0,0,0,.373-2.224c0-3.253-2.228-5.889-4.976-5.889a4.563,4.563,0,0,0-3.365,1.575A4.865,4.865,0,0,0,36,56.267a5.053,5.053,0,0,0-4.6,3.659,4.372,4.372,0,0,0-2.513-.832c-2.748,0-4.976,2.637-4.976,5.889,0,.132.026.256.033.385a4.272,4.272,0,0,0-1.727-.385c-2.748,0-4.976,2.637-4.976,5.889s2.228,5.889,4.976,5.889a4.439,4.439,0,0,0,2.829-1.052,4.44,4.44,0,0,0,2.83,1.052,4.746,4.746,0,0,0,3.945-2.335,6.213,6.213,0,0,0,5.5,3.891,6.076,6.076,0,0,0,5.177-3.225,4.593,4.593,0,0,0,3.461,1.669,4.994,4.994,0,0,0,4.5-3.4,4.67,4.67,0,0,0,8.984.021c.886,3.075,3.32,5.3,6.218,5.3a6.644,6.644,0,0,0,6.007-4.612,4.132,4.132,0,0,0,3.687,2.695c2.294,0,4.155-2.2,4.155-4.917S77.64,66.928,75.346,66.928Z" fill="#ebf0f3"/><path d="M65.652,79.679A7.38,7.38,0,0,1,59.273,75.6a5.434,5.434,0,0,1-8.823-.214,5.676,5.676,0,0,1-4.5,2.371,5.379,5.379,0,0,1-3.3-1.145,6.636,6.636,0,0,1-10.984-.44,5.438,5.438,0,0,1-3.8,1.585,5.322,5.322,0,0,1-2.83-.823,5.318,5.318,0,0,1-2.829.823c-3.3,0-5.977-3.09-5.977-6.889s2.681-6.89,5.977-6.89a4.8,4.8,0,0,1,.749.059c.4-3.355,2.9-5.948,5.921-5.948a5.16,5.16,0,0,1,2.038.428A5.813,5.813,0,0,1,36,55.267a5.592,5.592,0,0,1,4.457,2.317,5.355,5.355,0,0,1,3.149-1.047c3.3,0,5.977,3.091,5.977,6.89a7.788,7.788,0,0,1-.214,1.819,6.437,6.437,0,0,1,1.078,1.113,5.434,5.434,0,0,1,8.826-.219,7.38,7.38,0,0,1,6.379-4.074,7.551,7.551,0,0,1,6.789,4.9,4.686,4.686,0,0,1,2.9-1.042c2.842,0,5.155,2.654,5.155,5.917s-2.312,5.917-5.155,5.917a4.78,4.78,0,0,1-3.582-1.675A7.315,7.315,0,0,1,65.652,79.679Zm-5.9-8.807L60.4,73.1c.789,2.738,2.9,4.578,5.257,4.578a5.67,5.67,0,0,0,5.072-3.968l.834-2.191-.519-2.378c-.651-2.988-2.867-5.075-5.388-5.075-2.355,0-4.468,1.839-5.257,4.577Zm-27.79,1.484.764,1.649a5.238,5.238,0,0,0,4.588,3.312,5.1,5.1,0,0,0,4.313-2.729l.7-1.2.916,1.052a3.6,3.6,0,0,0,2.707,1.326,4.027,4.027,0,0,0,3.567-2.771l.838-2.119-.838-2.117a4.588,4.588,0,0,0-1.829-2.249L47,66.088l.263-.763a5.791,5.791,0,0,0,.318-1.9c0-2.7-1.784-4.89-3.977-4.89a3.582,3.582,0,0,0-2.627,1.25l-.971,1.061-.657-1.279A3.861,3.861,0,0,0,36,57.267a4.053,4.053,0,0,0-3.657,2.986l-.433,1.25-1.084-.756a3.361,3.361,0,0,0-1.94-.653c-2.193,0-3.977,2.193-3.977,4.889a.851.851,0,0,0,.011.107c.009.074.017.147.021.222l.092,1.629-1.493-.658a3.253,3.253,0,0,0-1.324-.3c-2.193,0-3.977,2.193-3.977,4.89s1.784,4.889,3.977,4.889a3.448,3.448,0,0,0,2.195-.825l.634-.521.634.521a3.449,3.449,0,0,0,2.2.825,3.747,3.747,0,0,0,3.1-1.877Zm39.655-.91.959,2.224a3.14,3.14,0,0,0,2.768,2.091c1.74,0,3.155-1.757,3.155-3.917s-1.415-3.917-3.155-3.917a2.975,2.975,0,0,0-2.481,1.531Zm-21.076-.575.837,2.118a4.027,4.027,0,0,0,3.567,2.771,3.974,3.974,0,0,0,3.559-2.754l.854-2.135-.854-2.135a3.974,3.974,0,0,0-3.559-2.754,4.027,4.027,0,0,0-3.567,2.771Z" fill="#2f3a5a"/><rect x="104.28" y="25.853" width="12.374" height="24.561" transform="translate(-1.126 3.431) rotate(-1.771)" fill="#e1e6e9"/><path d="M104.662,51.6a1,1,0,0,1-1-.969L102.9,26.081a1,1,0,0,1,.969-1.03l12.368-.382a.988.988,0,0,1,1.03.969l.759,24.549a1,1,0,0,1-.969,1.03l-12.369.382Zm.271-24.581.7,22.55L116,49.248l-.7-22.55Z" fill="#2f3a5a"/><path d="M9.433,76.467l10.216,46.515a5.59,5.59,0,0,0,5.466,4.4H90.793a5.612,5.612,0,0,0,5.477-4.4l10.2-46.515Z" fill="#5fc4f8"/><path d="M106.47,76.47l-10.2,46.51a5.608,5.608,0,0,1-5.48,4.4H25.11a5.586,5.586,0,0,1-5.46-4.4l-.09-.41a5.089,5.089,0,0,0,1.3.16H86.54a5.606,5.606,0,0,0,5.47-4.39l9.19-41.87Z" fill="#3dbce9"/><path d="M90.793,128.379H25.114a6.553,6.553,0,0,1-6.443-5.183L8.189,75.467h99.529L97.247,123.2A6.577,6.577,0,0,1,90.793,128.379ZM10.676,77.467l9.948,45.3a4.566,4.566,0,0,0,4.49,3.611H90.793a4.588,4.588,0,0,0,4.5-3.615l9.937-45.3Z" fill="#2f3a5a"/><path d="M108,70.59H7.909a4.63,4.63,0,0,0,0,9.259H108a4.63,4.63,0,0,0,0-9.259Z" fill="#05b3db"/><path d="M108,70.59H7.909a4.63,4.63,0,0,0,0,9.259H108a4.63,4.63,0,0,0,0-9.259Z" fill="#81dafc"/><path d="M112.63,75.22A4.633,4.633,0,0,1,108,79.85H7.91a4.611,4.611,0,0,1-4.58-3.99.486.486,0,0,0,.12.01H103.54a4.639,4.639,0,0,0,4.63-4.63,3.388,3.388,0,0,0-.05-.64A4.619,4.619,0,0,1,112.63,75.22Z" fill="#3dbce9"/><path d="M108,80.849H7.909a5.63,5.63,0,0,1,0-11.259H108a5.63,5.63,0,1,1,0,11.259ZM7.909,71.59a3.63,3.63,0,0,0,0,7.259H108a3.63,3.63,0,1,0,0-7.259Z" fill="#2f3a5a"/></svg>
