<svg id="icon" height="512" viewBox="0 0 128 128" width="512" xmlns="http://www.w3.org/2000/svg"><rect fill="#d9e2e9" height="120.935" rx="7.112" width="112.177" x="8.276" y="1"/><path d="m120.45 8.11v106.71a7.114 7.114 0 0 1 -7.11 7.12h-97.95a7.117 7.117 0 0 1 -7.11-7.07h96.79a7.112 7.112 0 0 0 7.11-7.11v-106.76h1.16a7.106 7.106 0 0 1 7.11 7.11z" fill="#c1cdd3"/><path d="m113.341 122.935h-97.952a8.121 8.121 0 0 1 -8.112-8.112v-106.711a8.121 8.121 0 0 1 8.112-8.112h97.953a8.121 8.121 0 0 1 8.112 8.112v106.711a8.121 8.121 0 0 1 -8.113 8.112zm-97.952-120.935a6.119 6.119 0 0 0 -6.113 6.112v106.711a6.119 6.119 0 0 0 6.112 6.112h97.953a6.119 6.119 0 0 0 6.112-6.112v-106.711a6.119 6.119 0 0 0 -6.112-6.112z" fill="#2f3a5a"/><path d="m113.342 1h-97.954a7.112 7.112 0 0 0 -7.112 7.112v17.937h112.178v-17.937a7.112 7.112 0 0 0 -7.112-7.112z" fill="#9297ab"/><path d="m120.45 8.11v17.94h-8.27v-17.94a7.112 7.112 0 0 0 -7.11-7.11h8.27a7.106 7.106 0 0 1 7.11 7.11z" fill="#84879c"/><path d="m113.342 1h-97.954a7.112 7.112 0 0 0 -7.112 7.112v17.937h112.178v-17.937a7.112 7.112 0 0 0 -7.112-7.112z" fill="none"/><path d="m113.341 122.935h-97.952a8.121 8.121 0 0 1 -8.112-8.112v-106.711a8.121 8.121 0 0 1 8.112-8.112h97.953a8.121 8.121 0 0 1 8.112 8.112v106.711a8.121 8.121 0 0 1 -8.113 8.112zm-97.952-120.935a6.119 6.119 0 0 0 -6.113 6.112v106.711a6.119 6.119 0 0 0 6.112 6.112h97.953a6.119 6.119 0 0 0 6.112-6.112v-106.711a6.119 6.119 0 0 0 -6.112-6.112z" fill="#2f3a5a"/><path d="m7.546 25.049h112.907v2h-112.907z" fill="#2f3a5a"/><circle cx="101.4" cy="12.927" fill="#9297ab" r="4.555" transform="matrix(.707 -.707 .707 .707 20.559 75.487)"/><path d="m101.4 18.479a5.553 5.553 0 1 1 3.928-9.479 5.552 5.552 0 0 1 -3.928 9.479zm0-9.1a3.553 3.553 0 0 0 -2.514 6.066 3.641 3.641 0 0 0 5.027 0 3.553 3.553 0 0 0 -2.513-6.071z" fill="#2f3a5a"/><path d="m104.77 9.557-6.739 6.74" fill="#84879c"/><path d="m96.635 11.927h9.531v2h-9.531z" fill="#2f3a5a" transform="matrix(.707 -.707 .707 .707 20.559 75.487)"/><circle cx="80.414" cy="12.927" fill="#9297ab" r="4.555" transform="matrix(.707 -.707 .707 .707 14.412 60.648)"/><path d="m80.414 18.481a5.554 5.554 0 1 1 3.928-1.627 5.516 5.516 0 0 1 -3.928 1.627zm0-9.109a3.555 3.555 0 0 0 -2.514 6.068 3.64 3.64 0 0 0 5.027 0 3.554 3.554 0 0 0 -2.514-6.068z" fill="#2f3a5a"/><path d="m83.784 9.557-6.739 6.74" fill="#84879c"/><path d="m75.649 11.927h9.531v2h-9.531z" fill="#2f3a5a" transform="matrix(.707 -.707 .707 .707 14.412 60.648)"/><path d="m18.35 7.939h24.894v11.152h-24.894z" fill="#b9ddfc"/><path d="m43.245 20.09h-24.894a1 1 0 0 1 -1-1v-11.151a1 1 0 0 1 1-1h24.894a1 1 0 0 1 1 1v11.151a1 1 0 0 1 -1 1zm-23.894-2h22.894v-9.151h-22.894z" fill="#2f3a5a"/><circle cx="64.365" cy="71.668" fill="#9297ab" r="25.025"/><path d="m64.365 97.694a26.025 26.025 0 1 1 26.025-26.026 26.055 26.055 0 0 1 -26.025 26.026zm0-50.051a24.025 24.025 0 1 0 24.025 24.025 24.052 24.052 0 0 0 -24.025-24.025z" fill="#2f3a5a"/><circle cx="64.365" cy="71.668" fill="#d9e2e9" r="19.609"/><path d="m44.786 72.274a19.587 19.587 0 0 0 39.157 0z" fill="#3dbce9"/><path d="m64.365 92.277a20.609 20.609 0 1 1 20.609-20.609 20.632 20.632 0 0 1 -20.609 20.609zm0-39.218a18.609 18.609 0 1 0 18.609 18.609 18.63 18.63 0 0 0 -18.609-18.609z" fill="#2f3a5a"/><path d="m103.231 121.935h9.803v4.194h-9.803z" fill="#d9e2e9"/><path d="m113.034 127.129h-9.8a1 1 0 0 1 -1-1v-4.194a1 1 0 0 1 1-1h9.8a1 1 0 0 1 1 1v4.194a1 1 0 0 1 -1 1zm-8.8-2h7.8v-2.194h-7.8z" fill="#2f3a5a"/><path d="m15.696 121.935h9.803v4.194h-9.803z" fill="#d9e2e9"/><path d="m25.5 127.129h-9.8a1 1 0 0 1 -1-1v-4.194a1 1 0 0 1 1-1h9.8a1 1 0 0 1 1 1v4.194a1 1 0 0 1 -1 1zm-8.8-2h7.8v-2.194h-7.8z" fill="#2f3a5a"/></svg>