<svg id="icon" height="512" viewBox="0 0 128 128" width="512" xmlns="http://www.w3.org/2000/svg"><ellipse cx="64" cy="114.656" fill="#5fc4f8" rx="63" ry="8.666"/><path d="m64 124.321c-25.726 0-64-2.574-64-9.666s38.274-9.666 64-9.666 64 2.574 64 9.666-38.274 9.666-64 9.666zm0-17.332a343.7 343.7 0 0 0 -44.412 2.529c-17.388 2.392-17.588 5.11-17.588 5.138s.2 2.745 17.588 5.137a343.7 343.7 0 0 0 44.412 2.528 343.7 343.7 0 0 0 44.412-2.529c17.388-2.392 17.588-5.109 17.588-5.136s-.2-2.746-17.588-5.137a343.7 343.7 0 0 0 -44.412-2.529z" fill="#2f3a5a"/><g fill="#d9e2e9"><path d="m48.01 111.709h-.01c-1.027-.011-2.078-.021-3.128-.021h-.486a1 1 0 0 1 0-2h.489c1.057 0 2.115.011 3.149.021a1 1 0 0 1 -.01 2z"/><path d="m31.724 112.056a1 1 0 0 1 -.058-2c2.157-.127 4.422-.224 6.732-.285a.978.978 0 0 1 1.026.973 1 1 0 0 1 -.973 1.026c-2.289.061-4.532.156-6.667.282z"/><path d="m44.872 119.624c-5.38 0-32.216-.239-32.216-4.963 0-.928 0-2.86 13.075-4.143a1 1 0 0 1 .2 1.99c-7.09.7-10.152 1.622-11.061 2.16 2.034 1.281 13.1 2.956 30.006 2.956 1.05 0 2.1-.01 3.128-.021h.01a1 1 0 0 1 .01 2c-1.038.01-2.095.021-3.152.021z"/><path d="m97.156 112.365h-.056c-2.935-.156-6.036-.236-9.215-.236-.863 0-1.726.009-2.57.019a1 1 0 1 1 -.021-2c.851-.009 1.721-.019 2.592-.019 3.215 0 6.352.081 9.322.239a1 1 0 0 1 -.052 2z"/><path d="m87.887 119.184c-.871 0-1.741-.009-2.592-.019a1 1 0 0 1 -.989-1.011 1.026 1.026 0 0 1 1.011-.989c.844.009 1.708.019 2.57.019 13.5 0 22.513-1.412 24.427-2.516-.828-.454-3.251-1.194-8.5-1.772a1 1 0 1 1 .219-1.988c10.529 1.16 10.529 2.912 10.529 3.753-.003 4.304-22.221 4.523-26.675 4.523z"/></g><path d="m93.694 69.137a29.694 29.694 0 1 1 -59.387 0c-.001-16.399 29.693-64.459 29.693-64.459s29.694 48.06 29.694 64.459z" fill="#5fc4f8"/><path d="m93.7 69.141a29.694 29.694 0 0 1 -55.45 14.775 29.7 29.7 0 0 0 42.783-26.647c0-10.11-11.292-32.262-19.946-47.754 1.794-3.029 2.913-4.834 2.913-4.834s29.7 48.06 29.7 64.46z" fill="#3dbce9"/><path d="m64 99.831a30.728 30.728 0 0 1 -30.694-30.694c0-16.494 28.625-63.012 29.843-64.984a1.039 1.039 0 0 1 1.7 0c1.219 1.972 29.843 48.49 29.843 64.984a30.728 30.728 0 0 1 -30.692 30.694zm0-93.231c-4.846 8.008-28.694 48.153-28.694 62.537a28.694 28.694 0 0 0 57.388 0c0-14.385-23.848-54.528-28.694-62.537z" fill="#2f3a5a"/><path d="m79.554 66.99-3.547-6.486-3.547 6.486-6.487 3.548 6.487 3.547 3.547 6.486 3.547-6.486 6.486-3.547z" fill="#ebf0f3"/><path d="m67.075 49.774-1.98-3.621-1.981 3.621-3.621 1.981 3.621 1.98 1.981 3.621 1.98-3.621 3.621-1.98z" fill="#ebf0f3"/></svg>