<svg height="512" viewBox="0 0 128 128" width="512" xmlns="http://www.w3.org/2000/svg"><g id="icon"><path d="m29.426 43.946h69.147v7.158h-69.147z" fill="#84879c"/><path d="m98.574 52.1h-69.148a1 1 0 0 1 -1-1v-7.154a1 1 0 0 1 1-1h69.148a1 1 0 0 1 1 1v7.154a1 1 0 0 1 -1 1zm-68.148-2h67.148v-5.154h-67.148z" fill="#2f3a5a"/><path d="m126.65 84.139-7.116-32.02a1.3 1.3 0 0 0 -1.265-1.015h-108.538a1.3 1.3 0 0 0 -1.265 1.015l-7.116 32.02a1.3 1.3 0 0 0 1.266 1.577h122.768a1.3 1.3 0 0 0 1.266-1.577z" fill="#d9e2e9"/><path d="m125.38 85.72h-122.76a1.3 1.3 0 0 1 -1.27-1.58l.63-2.83h118.25a1.3 1.3 0 0 0 1.27-1.58l-6.37-28.63h3.14a1.294 1.294 0 0 1 1.26 1.02l7.12 32.02a1.3 1.3 0 0 1 -1.27 1.58z" fill="#c1cdd3"/><path d="m125.385 86.716h-122.77a2.3 2.3 0 0 1 -2.241-2.794l7.115-32.022a2.284 2.284 0 0 1 2.241-1.8h108.54a2.284 2.284 0 0 1 2.241 1.8l7.115 32.02a2.3 2.3 0 0 1 -2.241 2.794zm-115.655-34.616a.3.3 0 0 0 -.288.232l-7.115 32.024a.3.3 0 0 0 .288.36h122.77a.3.3 0 0 0 .288-.36l-7.115-32.02a.3.3 0 0 0 -.288-.232z" fill="#2f3a5a"/><path d="m41.701 78.031h-30.076l3.928-20.686h27.82z" fill="#3dbce9"/><path d="m43.37 57.35-.21 2.62h-24.95l-3.43 18.06h-3.15l3.92-20.68z" fill="#81dafc"/><path d="m41.7 79.031h-30.075a1 1 0 0 1 -.982-1.186l3.928-20.686a1 1 0 0 1 .983-.814h27.819a1 1 0 0 1 1 1.081l-1.673 20.686a1 1 0 0 1 -1 .919zm-28.868-2h27.946l1.511-18.686h-25.907z" fill="#2f3a5a"/><path d="m87.376 64.327h-7.132l-.399-6.433h6.958z" fill="#84879c"/><path d="m87.376 65.327h-7.133a1 1 0 0 1 -1-.938l-.4-6.433a1 1 0 0 1 1-1.062h6.957a1 1 0 0 1 1 .911l.573 6.433a1 1 0 0 1 -1 1.089zm-6.192-2h5.1l-.395-4.433h-4.98z" fill="#2f3a5a"/><path d="m100.574 64.327h-7.132l-.723-6.433h6.958z" fill="#84879c"/><path d="m100.574 65.327h-7.133a1 1 0 0 1 -.994-.888l-.722-6.433a1 1 0 0 1 .994-1.112h6.958a1 1 0 0 1 .99.862l.9 6.433a1 1 0 0 1 -.99 1.138zm-6.239-2h5.09l-.618-4.433h-4.97z" fill="#2f3a5a"/><path d="m113.772 64.327h-7.132l-1.047-6.433h6.958z" fill="#84879c"/><path d="m113.772 65.327h-7.132a1 1 0 0 1 -.988-.839l-1.046-6.433a1 1 0 0 1 .988-1.161h6.957a1 1 0 0 1 .982.814l1.222 6.433a1 1 0 0 1 -.983 1.186zm-6.282-2h5.074l-.841-4.433h-4.953z" fill="#2f3a5a"/><path d="m88.541 77.393h-7.488l-.439-7.082h7.296z" fill="#84879c"/><path d="m88.541 78.393h-7.488a1 1 0 0 1 -1-.938l-.439-7.082a1 1 0 0 1 1-1.062h7.3a1 1 0 0 1 1 .911l.631 7.082a1 1 0 0 1 -1 1.089zm-6.548-2h5.455l-.448-5.082h-5.322z" fill="#2f3a5a"/><path d="m102.397 77.393h-7.488l-.795-7.082h7.295z" fill="#84879c"/><path d="m102.4 78.393h-7.491a1 1 0 0 1 -.994-.889l-.8-7.082a1 1 0 0 1 .994-1.111h7.3a1 1 0 0 1 .99.862l.989 7.081a1 1 0 0 1 -.991 1.139zm-6.594-2h5.445l-.709-5.082h-5.31z" fill="#2f3a5a"/><path d="m116.253 77.393h-7.488l-1.152-7.082h7.296z" fill="#84879c"/><path d="m116.253 78.393h-7.487a1 1 0 0 1 -.988-.84l-1.152-7.081a1 1 0 0 1 .987-1.161h7.3a1 1 0 0 1 .983.814l1.343 7.081a1 1 0 0 1 -.982 1.187zm-6.637-2h5.429l-.964-5.082h-5.292z" fill="#2f3a5a"/><path d="m104.716 85.716v4.3a2.218 2.218 0 0 0 2.217 2.217h10.585a2.218 2.218 0 0 0 2.217-2.217v-4.3z" fill="#84879c"/><path d="m117.518 93.236h-10.584a3.221 3.221 0 0 1 -3.218-3.217v-4.3a1 1 0 0 1 1-1h15.019a1 1 0 0 1 1 1v4.3a3.221 3.221 0 0 1 -3.217 3.217zm-11.8-6.52v3.3a1.219 1.219 0 0 0 1.218 1.217h10.584a1.218 1.218 0 0 0 1.217-1.217v-3.3z" fill="#2f3a5a"/><path d="m8.265 85.716v4.3a2.218 2.218 0 0 0 2.217 2.217h10.585a2.218 2.218 0 0 0 2.217-2.217v-4.3z" fill="#84879c"/><path d="m21.066 93.236h-10.584a3.221 3.221 0 0 1 -3.217-3.217v-4.3a1 1 0 0 1 1-1h15.019a1 1 0 0 1 1 1v4.3a3.221 3.221 0 0 1 -3.218 3.217zm-11.8-6.52v3.3a1.218 1.218 0 0 0 1.217 1.217h10.583a1.219 1.219 0 0 0 1.218-1.217v-3.3z" fill="#2f3a5a"/><path d="m116.877 35.764h-105.754a4.091 4.091 0 1 0 0 8.182h105.754a4.091 4.091 0 1 0 0-8.182z" fill="#d9e2e9"/><path d="m118.96 36.34a.66.66 0 0 1 .01.14 4.089 4.089 0 0 1 -4.09 4.09h-105.76a3.992 3.992 0 0 1 -2.08-.58 4.087 4.087 0 0 0 4.08 3.96h105.76a4.089 4.089 0 0 0 2.08-7.61z" fill="#c1cdd3"/><path d="m116.877 44.946h-105.754a5.091 5.091 0 1 1 0-10.182h105.754a5.091 5.091 0 1 1 0 10.182zm-105.754-8.182a3.091 3.091 0 1 0 0 6.182h105.754a3.091 3.091 0 1 0 0-6.182z" fill="#2f3a5a"/></g></svg>